<svg version="1.0" xmlns="http://www.w3.org/2000/svg"
 width="990.000000pt" height="1320.000000pt" viewBox="0 0 990.000000 1320.000000"
 preserveAspectRatio="xMidYMid meet">
<metadata>
Created by potrace 1.16, written by Peter Selinger 2001-2019
</metadata>
<g transform="translate(0.000000,1320.000000) scale(0.100000,-0.100000)"
fill="#000000" stroke="none">
<path d="M4625 10901 c-38 -9 -80 -23 -92 -29 -12 -7 -37 -12 -55 -13 -18 -1
-44 -5 -58 -10 -18 -6 -13 -7 20 -3 l45 5 -30 -20 c-34 -23 -57 -26 -87 -10
-36 19 -196 -37 -249 -87 -14 -13 -53 -35 -88 -49 -66 -26 -119 -60 -161 -105
-22 -24 -35 -28 -108 -33 -73 -5 -91 -10 -150 -44 -120 -69 -180 -170 -203
-340 -7 -48 -20 -106 -30 -128 -10 -23 -22 -85 -27 -146 -11 -115 -22 -142
-64 -160 -16 -6 -28 -14 -28 -18 0 -4 -20 -40 -45 -81 -24 -41 -45 -85 -45
-97 0 -12 -6 -26 -12 -30 -7 -4 -24 -29 -37 -56 -22 -44 -26 -47 -55 -42 -61
12 -518 6 -531 -6 -3 -3 34 -7 82 -8 91 -2 131 -11 49 -11 -26 0 -61 -7 -77
-16 -36 -18 -33 -29 4 -15 88 34 287 -17 352 -89 19 -21 35 -26 35 -12 0 5
-11 15 -25 22 -14 7 -25 17 -25 22 0 5 8 5 18 0 9 -5 23 -7 30 -5 6 3 12 0 12
-7 0 -6 5 -8 10 -5 6 3 10 -1 10 -9 0 -9 -5 -16 -11 -16 -5 0 -8 -4 -5 -9 9
-14 -4 -39 -22 -44 -11 -3 -9 -5 7 -6 24 -1 26 -16 5 -66 -7 -18 -6 -18 9 -6
9 7 17 22 17 32 0 11 5 19 10 19 13 0 13 -3 -2 -37 -14 -35 -17 -47 -25 -106
-5 -41 -9 -48 -24 -44 -11 3 -19 1 -19 -4 0 -5 6 -9 13 -10 6 0 22 -12 34 -28
20 -26 21 -30 8 -90 -7 -35 -22 -75 -34 -90 -12 -14 -32 -48 -47 -76 -20 -40
-21 -45 -5 -25 11 14 21 28 21 33 0 4 5 7 11 7 6 0 8 -9 4 -20 -17 -52 -21
-393 -6 -475 6 -33 15 -133 21 -222 6 -97 15 -175 24 -195 8 -18 20 -78 26
-132 8 -65 22 -125 42 -175 29 -72 52 -221 34 -221 -4 0 -21 7 -39 16 l-32 15
34 -29 c23 -19 34 -37 34 -56 -1 -15 6 -30 13 -33 11 -4 13 -15 8 -42 l-7 -36
22 25 c12 13 21 33 19 45 -1 11 1 25 4 30 4 6 9 32 12 59 3 26 9 52 12 57 3 6
10 52 15 102 4 51 13 133 18 182 13 120 22 271 26 432 1 72 6 136 10 142 3 7
4 29 0 51 -4 23 -2 53 6 74 7 20 9 39 5 43 -5 5 -11 2 -13 -4 -3 -7 -9 -13
-14 -13 -5 0 -2 14 7 31 11 23 13 34 5 42 -15 15 -14 36 2 67 23 44 26 68 10
74 -12 5 -13 9 -3 21 15 18 -1 20 -18 3 -9 -9 -15 -9 -24 1 -11 10 -10 11 5 6
11 -5 17 -2 17 7 0 7 9 21 20 31 11 9 20 27 20 39 -1 22 57 147 73 159 4 3 9
18 11 32 1 14 7 32 13 39 6 7 15 31 19 53 4 22 32 84 63 138 49 86 71 118 147
210 7 9 14 20 14 23 0 3 15 28 34 57 44 69 110 132 166 160 26 13 44 29 42 35
-2 7 3 12 11 12 8 0 20 7 27 15 7 8 21 15 31 15 10 0 35 11 55 25 20 13 58 28
85 31 44 6 80 24 47 24 -7 0 6 9 27 21 25 13 58 21 87 21 47 -1 80 17 36 19
-40 2 103 30 192 38 77 6 85 11 40 24 -15 4 201 9 250 6 25 -2 55 -1 88 2 9 1
60 -6 112 -16 52 -10 114 -18 138 -17 24 1 41 -2 38 -7 -3 -5 3 -7 13 -4 27 7
70 -27 71 -54 0 -15 6 -23 17 -23 14 0 14 -2 -2 -20 -10 -11 -26 -20 -37 -20
-22 0 -23 -9 -2 -38 15 -22 44 -30 44 -13 0 5 13 11 28 13 25 4 28 1 24 -19
-3 -14 -11 -23 -23 -23 -29 0 -46 -48 -29 -81 7 -13 6 -22 -5 -33 -21 -20 -19
-26 9 -26 25 0 43 25 26 35 -17 10 -11 25 10 25 11 0 20 -7 20 -15 0 -8 6 -12
13 -9 14 5 50 -64 40 -78 -3 -6 -15 -7 -28 -4 -16 4 -25 -1 -35 -18 -13 -25
-6 -51 11 -41 5 4 12 -2 16 -12 4 -10 14 -23 22 -30 14 -10 14 -12 -1 -18 -25
-10 -12 -25 20 -26 20 0 14 -4 -21 -13 -65 -18 -67 -24 -6 -22 39 1 53 -3 56
-14 4 -12 3 -12 -5 -2 -7 11 -10 11 -15 -2 -4 -9 -12 -16 -19 -16 -7 0 -19 -9
-26 -20 -11 -17 -10 -20 7 -20 11 0 26 6 33 13 11 12 16 12 28 -1 13 -14 12
-15 -3 -9 -9 3 -23 0 -32 -9 -21 -21 -59 -9 -52 17 8 30 -12 33 -23 4 -15 -39
-12 -88 6 -111 15 -18 15 -18 10 8 -8 38 2 62 21 47 7 -7 12 -18 9 -25 -3 -7
0 -15 7 -17 9 -3 9 -9 0 -26 -24 -39 -17 -50 30 -48 37 2 42 -1 45 -20 4 -28
16 -29 41 -4 19 19 20 19 18 -7 -2 -24 1 -27 26 -24 19 2 27 -2 27 -13 0 -9
-9 -15 -22 -15 -20 -1 -20 -2 7 -15 20 -9 24 -14 13 -14 -25 -1 -23 -21 2 -21
11 0 20 -4 20 -10 0 -15 -77 -12 -83 3 -3 8 -7 6 -12 -7 -11 -25 7 -50 38 -54
14 -2 31 -9 37 -17 6 -8 18 -11 26 -8 12 4 12 1 1 -26 -7 -17 -24 -43 -37 -58
-19 -22 -24 -38 -22 -72 1 -33 -3 -49 -18 -63 -32 -30 -26 -48 9 -26 14 9 23
8 42 -5 l23 -17 -29 0 c-17 0 -37 -5 -45 -10 -12 -8 -11 -10 7 -10 25 0 39
-15 23 -25 -6 -4 -8 -11 -5 -16 4 -5 0 -9 -7 -9 -9 0 -9 -3 2 -10 13 -9 13
-11 0 -20 -23 -15 -30 -12 -30 13 -1 21 -1 21 -12 2 -11 -19 -11 -19 -20 0 -6
15 -7 11 -5 -15 2 -19 8 -44 12 -54 6 -14 5 -17 -4 -12 -7 5 -16 18 -20 29 -8
20 -9 20 -25 -11 -12 -23 -24 -32 -41 -32 -23 0 -43 -30 -31 -48 6 -10 -30
-52 -44 -52 -6 0 -10 11 -10 25 0 14 -4 25 -10 25 -5 0 -10 -6 -10 -12 0 -7
-11 -25 -24 -40 -17 -21 -32 -28 -60 -28 -30 0 -36 -4 -36 -21 0 -15 -5 -19
-15 -15 -16 6 -40 -28 -30 -44 8 -13 -1 -13 -25 2 -22 14 -25 12 -34 -24 -4
-17 -2 -28 4 -28 5 0 10 9 10 20 0 35 17 21 18 -15 1 -36 -6 -43 -25 -24 -8 8
-13 8 -17 0 -4 -6 0 -11 8 -11 21 0 30 -18 16 -35 -13 -15 -10 -46 5 -57 6 -4
1 -8 -9 -8 -18 0 -18 -1 -3 -17 9 -10 14 -32 13 -50 -1 -22 2 -33 11 -33 19 0
37 -45 27 -67 -13 -29 -14 -117 -1 -125 9 -6 9 -8 0 -8 -8 0 -13 -14 -13 -35
0 -19 -4 -35 -10 -35 -5 0 -10 -7 -10 -15 0 -8 5 -15 10 -15 13 0 13 -37 0
-45 -5 -3 -6 -15 -1 -28 10 -25 -8 -229 -19 -222 -7 4 -21 -125 -20 -184 0
-13 -7 -33 -17 -43 -11 -13 -12 -18 -3 -18 9 0 11 -9 6 -30 -4 -23 0 -36 15
-51 17 -17 19 -23 8 -30 -12 -8 -12 -11 1 -19 10 -7 12 -12 4 -17 -9 -7 -14
-45 -16 -145 -1 -16 -6 -28 -11 -28 -6 0 -3 -6 6 -13 16 -11 18 -46 8 -119 -2
-16 -46 -48 -67 -48 -12 0 -24 -6 -27 -14 -4 -9 -14 -12 -26 -9 -15 4 -21 1
-21 -11 0 -9 -4 -16 -10 -16 -5 0 -10 7 -10 15 0 24 -20 17 -22 -7 -2 -37 -3
-42 -12 -56 -5 -8 11 -33 44 -72 36 -42 51 -66 47 -80 -6 -25 26 -54 52 -47
11 3 25 -1 32 -9 6 -8 16 -11 21 -8 6 4 5 10 -3 16 -11 7 -9 8 6 6 12 -2 19
-10 17 -21 -2 -10 4 -17 13 -17 11 0 14 -6 9 -24 -3 -15 -1 -25 9 -29 20 -8
61 -113 52 -134 -11 -25 -12 -46 -2 -60 19 -27 -104 -116 -173 -126 -25 -3
-46 -11 -48 -16 -5 -14 -42 -14 -42 -1 0 6 -7 10 -16 10 -12 0 -15 -6 -10 -26
7 -27 7 -27 -38 -21 -31 5 -46 3 -49 -6 -3 -7 -6 -2 -6 11 -1 31 -19 28 -24
-5 -3 -23 -4 -21 -6 9 -1 31 -4 36 -18 31 -12 -5 -15 -2 -10 10 4 11 1 17 -8
17 -7 0 -15 -10 -17 -22 -2 -13 -9 -22 -16 -21 -6 2 -13 -7 -13 -20 -2 -44 -4
-50 -16 -54 -8 -3 -13 5 -13 21 0 14 -5 26 -11 26 -7 0 -9 -11 -6 -28 5 -24 3
-27 -20 -26 -13 0 -28 7 -33 14 -10 16 -50 24 -50 11 0 -6 5 -13 10 -16 17
-11 12 -38 -6 -31 -9 4 -23 1 -31 -6 -12 -10 -18 -8 -32 11 -24 31 -46 23
-118 -44 -32 -30 -63 -55 -70 -55 -25 0 -63 -24 -63 -40 0 -29 172 -9 308 36
50 16 126 20 102 4 -11 -7 -7 -10 17 -10 17 0 34 -6 36 -12 4 -10 6 -10 6 0 2
24 40 13 47 -13 5 -19 11 -24 24 -20 13 4 19 -2 24 -27 5 -26 9 -30 16 -18 12
19 27 4 32 -30 1 -14 9 -26 16 -26 6 -1 13 -3 15 -4 2 -3 41 -8 85 -13 34 -3
27 -32 -18 -76 -37 -36 -43 -39 -74 -30 -48 13 -99 4 -151 -27 -49 -28 -52
-42 -14 -61 46 -24 160 -5 171 27 5 15 78 -48 78 -68 0 -9 7 -28 15 -42 30
-53 44 -91 39 -105 -4 -8 -3 -15 0 -15 4 0 11 11 16 25 10 27 30 34 30 10 0
-9 9 -15 24 -15 37 0 52 -24 36 -58 -12 -25 -21 -96 -21 -166 0 -17 8 -37 16
-45 14 -14 17 -14 25 -1 7 11 9 7 5 -15 -2 -16 -7 -51 -10 -78 -4 -26 -10 -47
-15 -47 -5 0 -7 -7 -3 -16 4 -11 1 -14 -10 -12 -9 2 -31 -14 -50 -34 -19 -21
-30 -38 -24 -38 5 0 3 -8 -6 -18 -10 -10 -17 -24 -17 -30 0 -7 -4 -12 -10 -12
-5 0 -10 9 -10 20 0 18 -3 19 -20 10 -11 -6 -20 -17 -20 -25 0 -9 -10 -15 -23
-15 -27 0 -57 -28 -57 -53 0 -9 7 -17 15 -17 17 0 20 16 5 25 -16 10 15 35 43
35 13 0 27 -3 30 -7 12 -11 -13 -31 -32 -26 -14 3 -19 0 -18 -14 2 -13 -6 -19
-25 -21 -17 -2 -28 1 -28 9 0 6 -8 9 -20 6 -13 -3 -20 0 -20 10 0 8 5 11 10 8
6 -3 10 -2 10 3 0 20 -28 20 -33 0 -3 -11 -10 -17 -16 -13 -6 3 -17 3 -23 -2
-14 -8 -19 -10 -45 -12 -15 -1 -16 -3 -3 -10 8 -6 17 -8 21 -6 3 3 4 -7 1 -20
-2 -14 -8 -25 -13 -25 -5 0 -9 -7 -9 -15 0 -8 -7 -15 -16 -15 -13 0 -14 -3 -5
-13 11 -14 -2 -37 -21 -37 -4 0 -17 -9 -28 -20 -12 -12 -25 -18 -31 -15 -5 4
-17 1 -25 -6 -11 -9 -18 -9 -26 -1 -22 22 -40 14 -36 -15 2 -23 -1 -28 -19
-28 -13 0 -28 -6 -35 -13 -9 -9 -9 -12 2 -12 7 0 11 -3 7 -6 -3 -3 -16 1 -29
10 -28 20 -47 20 -73 0 -19 -15 -19 -16 13 -12 17 3 32 1 32 -4 0 -5 16 -16
35 -24 19 -8 35 -21 35 -29 0 -8 5 -15 10 -15 6 0 10 -7 10 -15 0 -11 7 -14
25 -9 14 3 25 2 25 -4 0 -6 9 -8 20 -5 16 4 20 0 20 -20 0 -16 7 -27 18 -30 9
-3 2 -5 -15 -6 -35 -1 -44 -15 -16 -25 14 -6 14 -9 -5 -27 -22 -20 -30 -35
-13 -24 5 3 13 0 17 -6 4 -7 3 -9 -3 -6 -6 4 -16 0 -23 -8 -7 -8 -11 -15 -9
-15 2 0 35 -11 73 -25 91 -33 176 -75 176 -87 0 -5 4 -7 9 -4 11 7 5 -62 -9
-98 -5 -15 -7 -32 -4 -38 8 -13 -15 -28 -44 -28 -19 0 -21 -2 -10 -13 7 -7 21
-16 31 -20 10 -4 16 -11 13 -16 -3 -5 13 -9 35 -9 23 -1 44 -3 47 -6 3 -3 -7
-6 -21 -6 -41 0 -33 -27 11 -35 35 -8 36 -8 12 -15 -24 -8 -24 -8 -2 -9 12 -1
22 -5 22 -11 0 -5 8 -10 18 -11 14 0 14 -2 -3 -9 -18 -7 -18 -8 8 -15 30 -8
31 -9 17 -35 -14 -26 9 -39 27 -15 12 18 13 18 13 -3 0 -12 5 -22 11 -22 5 0
8 4 5 8 -3 5 -1 22 4 38 7 24 8 25 9 7 1 -16 7 -23 20 -23 29 0 35 -18 9 -23
-13 -2 -2 -5 25 -6 55 -1 59 -9 16 -33 -38 -22 -30 -42 9 -22 47 25 65 16 38
-19 -15 -19 -36 -23 -36 -5 0 6 -8 2 -18 -9 -9 -11 -26 -22 -37 -24 -11 -3
-20 -11 -20 -19 0 -24 93 -26 111 -3 8 11 13 13 14 6 0 -7 8 -13 18 -13 14 0
15 -2 2 -10 -12 -8 -11 -10 7 -10 16 0 21 -4 17 -15 -7 -17 7 -19 34 -6 73 36
139 65 152 67 19 1 63 24 71 35 3 5 35 11 71 13 38 3 77 12 91 21 17 11 27 13
32 6 3 -6 26 -11 50 -11 44 0 44 0 62 -49 9 -28 26 -55 38 -61 12 -6 13 -9 3
-6 -11 3 -19 -2 -23 -13 -3 -11 -15 -21 -27 -24 -13 -4 -19 -11 -15 -21 3 -8
1 -17 -6 -19 -9 -3 -8 -8 2 -20 10 -13 11 -20 2 -31 -9 -11 -9 -15 1 -19 9 -4
8 -6 -3 -6 -26 -1 -55 -39 -41 -53 9 -9 17 -7 32 7 11 10 23 16 26 12 3 -3 -3
-12 -15 -19 -12 -7 -21 -20 -21 -29 0 -9 -7 -19 -15 -23 -9 -3 -15 -18 -14
-38 1 -60 -12 -99 -37 -110 -16 -8 -22 -17 -19 -28 3 -11 -3 -21 -17 -28 -18
-8 -19 -11 -5 -11 18 -1 25 -21 7 -21 -6 0 -8 -11 -4 -25 4 -15 2 -25 -5 -25
-6 0 -11 -8 -11 -18 0 -10 -10 -38 -22 -63 -12 -24 -21 -52 -20 -62 0 -9 -4
-17 -9 -17 -5 0 -9 -15 -9 -32 1 -62 -7 -100 -22 -109 -10 -5 -13 -18 -10 -39
5 -37 21 -49 34 -26 9 16 11 16 23 -1 12 -16 16 -16 40 -3 23 12 28 12 35 0 8
-13 10 -12 10 3 0 22 48 24 56 2 5 -11 10 -12 26 -4 29 16 48 4 48 -30 0 -16
4 -32 8 -35 13 -8 35 11 28 23 -4 6 -1 11 8 11 10 0 15 -8 13 -22 -1 -18 3
-23 20 -22 13 0 25 -8 31 -22 9 -19 8 -21 -9 -17 -14 4 -19 0 -19 -16 0 -11 6
-21 14 -21 17 0 28 -52 13 -62 -6 -4 -8 -10 -4 -15 5 -4 12 -1 17 7 7 12 13 9
33 -14 18 -21 26 -25 31 -15 3 8 3 0 0 -18 -5 -30 6 -61 34 -91 10 -11 12 -11
12 1 0 8 11 18 25 21 14 4 25 13 25 21 0 8 7 15 15 15 21 0 19 -8 -11 -47 -14
-18 -30 -47 -36 -63 -9 -28 -13 -30 -45 -24 -33 6 -34 5 -27 -20 4 -19 2 -26
-9 -26 -8 0 -17 9 -20 20 -8 32 -34 25 -34 -10 0 -22 5 -30 21 -32 14 -2 20
-9 18 -20 -3 -18 18 -25 32 -11 3 4 15 8 26 10 15 2 20 -3 20 -21 0 -13 -6
-29 -14 -36 -8 -6 -12 -18 -10 -25 4 -8 -7 -20 -25 -29 -39 -21 -58 -20 -70 1
-6 11 -21 17 -45 16 -40 -1 -47 15 -16 37 11 8 20 22 20 32 0 10 7 18 15 18 8
0 15 5 15 10 0 18 -20 11 -44 -15 -28 -30 -56 -33 -56 -5 0 11 -4 20 -10 20
-5 0 -10 -11 -10 -25 0 -17 7 -29 23 -35 21 -8 21 -9 -5 -9 -16 -1 -31 6 -37
17 -10 16 -10 16 -11 0 0 -19 -36 -43 -44 -30 -2 4 0 14 5 22 8 13 10 13 19 0
5 -8 10 -10 10 -5 0 6 -5 17 -10 25 -8 13 -12 11 -26 -8 -12 -18 -19 -21 -30
-11 -11 9 -14 8 -14 -2 0 -9 -3 -10 -8 -3 -4 6 -29 11 -56 11 -57 1 -87 22
-66 48 15 19 9 28 -14 19 -18 -7 -22 -39 -6 -49 19 -12 -11 -37 -37 -30 -18 4
-23 1 -23 -14 0 -11 5 -23 10 -26 6 -3 10 -1 10 6 0 10 3 10 11 2 6 -6 9 -15
6 -20 -10 -16 -50 -8 -61 13 -6 10 -18 25 -26 32 -13 11 -12 12 4 4 14 -7 24
-5 40 9 11 11 26 19 33 19 7 0 13 6 13 14 0 11 -8 12 -35 6 -20 -4 -42 -13
-50 -20 -11 -9 -14 -6 -17 16 -3 27 -4 27 -21 10 -10 -10 -24 -15 -32 -12 -10
4 -15 -1 -15 -15 0 -19 -21 -49 -34 -49 -3 0 -6 8 -6 17 0 14 -3 14 -12 5 -10
-10 -10 -15 2 -22 12 -7 12 -13 2 -32 -16 -30 -59 -51 -69 -35 -5 7 -10 0 -15
-18 l-7 -30 2 30 c1 20 10 33 27 42 14 7 24 18 22 24 -1 6 2 17 8 24 8 10 3
16 -25 25 -39 13 -49 36 -11 26 30 -7 40 3 18 20 -15 12 -14 13 13 14 17 0 36
-5 41 -10 7 -7 17 -5 30 5 17 13 17 14 2 15 -10 0 -22 9 -28 19 -12 24 -13 61
-1 61 5 0 11 10 14 21 5 19 10 21 42 15 26 -5 35 -4 30 4 -3 5 -11 8 -16 5 -5
-4 -9 1 -9 9 0 10 -14 18 -37 22 -21 4 -44 11 -50 17 -9 6 -17 6 -26 -2 -10
-8 -17 -7 -25 1 -9 9 -12 9 -12 0 0 -7 4 -12 9 -12 5 0 12 -7 15 -15 7 -20
-23 -32 -35 -14 -7 11 -9 11 -9 -3 0 -21 -16 -24 -23 -5 -3 6 -6 1 -7 -13 -2
-22 -3 -20 -12 10 l-11 35 -11 -34 c-8 -22 -15 -30 -20 -23 -4 7 -16 12 -26
12 -10 0 -24 8 -29 18 -6 10 -11 12 -11 4 0 -7 -5 -10 -11 -6 -6 3 -14 2 -18
-4 -11 -19 -51 -2 -52 22 -1 15 -3 13 -9 -9 l-7 -30 -11 25 c-6 14 -11 19 -11
12 -1 -16 -41 7 -41 25 0 6 -12 13 -27 15 -38 4 -42 28 -6 28 17 0 33 -3 37
-8 4 -4 23 -7 42 -7 25 0 34 4 34 17 0 17 -51 35 -69 24 -5 -4 -12 -2 -16 4
-3 5 1 10 9 10 9 0 16 5 16 11 0 7 11 9 30 6 29 -6 42 6 18 16 -10 4 -9 8 2
16 8 5 11 13 6 18 -11 12 -107 13 -128 2 -10 -5 -18 -6 -17 -2 4 18 -14 43
-32 43 -10 0 -29 11 -43 24 l-26 23 24 26 c19 20 21 27 9 31 -23 9 -53 86 -40
101 7 7 18 10 24 8 18 -7 16 22 -2 37 -21 18 -19 30 8 31 14 0 17 3 7 6 -19 8
-49 45 -50 61 0 6 -5 12 -11 12 -21 0 2 19 32 25 l31 7 -23 24 c-12 13 -28 24
-35 24 -12 0 -26 71 -15 80 11 9 5 90 -8 103 -10 9 -11 9 -6 -4 4 -10 0 -19
-9 -22 -10 -4 -13 -1 -9 9 3 8 -1 14 -11 14 -9 0 -16 8 -17 18 0 13 -2 12 -9
-5 -9 -22 -30 -32 -30 -14 0 19 -32 20 -52 1 -16 -14 -25 -17 -39 -9 -23 12
-25 1 -4 -15 8 -6 18 -26 21 -45 6 -29 5 -33 -9 -28 -34 13 -47 -2 -41 -46 4
-30 0 -53 -14 -82 l-20 -40 25 -23 c20 -18 22 -26 13 -37 -6 -8 -9 -19 -6 -24
4 -5 -1 -14 -10 -19 -15 -8 -15 -11 -1 -33 8 -13 18 -35 22 -49 7 -22 6 -23
-8 -12 -12 10 -21 11 -34 3 -17 -10 -17 -10 0 -11 11 0 17 -8 17 -24 0 -14 5
-28 10 -31 16 -10 11 -52 -6 -59 -9 -4 -19 -4 -22 -1 -3 3 0 5 6 5 7 0 12 5
12 10 0 6 -8 5 -20 -2 -17 -11 -22 -10 -29 1 -5 7 -14 10 -20 7 -16 -10 -4
-26 20 -26 10 0 19 -4 19 -9 0 -5 9 -11 21 -14 12 -3 18 -10 14 -16 -3 -6 1
-11 10 -11 9 0 14 -4 10 -10 -3 -5 11 -18 32 -29 31 -17 34 -20 16 -21 -13 0
-23 -4 -23 -10 0 -5 -9 -1 -20 10 -11 11 -20 27 -20 36 0 8 -4 12 -10 9 -5 -3
-19 -8 -31 -10 -16 -3 -19 0 -17 17 4 29 -19 35 -25 6 -4 -22 -5 -23 -11 -2
-6 18 -14 20 -57 18 -47 -2 -49 -1 -50 24 l-2 27 -4 -25 c-7 -37 -23 -49 -29
-22 -4 12 -12 22 -19 22 -7 0 -18 7 -26 16 -8 9 -21 13 -35 10 -19 -5 -22 -3
-17 11 5 12 2 15 -10 10 -11 -4 -17 -1 -17 7 0 8 6 16 13 19 7 2 8 8 3 13 -5
5 -11 4 -13 -3 -6 -17 -23 -16 -23 1 0 7 -20 19 -45 26 -43 12 -61 30 -30 30
9 0 15 9 14 23 0 16 -2 18 -7 7 -7 -16 -45 -21 -58 -7 -4 4 4 7 17 7 l24 0
-25 13 c-21 11 -26 11 -32 -2 -5 -12 -7 -10 -7 7 -1 12 -7 23 -13 24 -17 2
-28 4 -56 13 -18 6 -20 10 -10 16 9 6 6 9 -10 9 -13 0 -20 4 -17 10 3 6 -4 10
-17 10 -29 0 -59 19 -40 27 24 9 12 25 -14 19 -20 -5 -25 -4 -21 7 3 7 -4 19
-15 26 -18 11 -20 11 -15 -4 4 -9 3 -14 -3 -10 -6 3 -10 11 -10 17 0 6 -7 20
-16 30 -16 16 -15 18 2 25 10 4 19 2 22 -5 2 -7 22 -12 45 -12 40 0 41 1 20
15 -12 8 -33 16 -47 17 -18 2 -26 8 -26 21 0 16 -3 17 -15 7 -8 -7 -15 -11
-16 -9 -8 39 -8 59 2 59 18 0 -11 30 -30 31 -10 0 -8 3 7 10 24 9 22 29 -4 29
-8 0 -14 10 -14 23 0 41 -23 77 -44 71 -17 -6 -18 -2 -13 24 3 16 3 33 -1 37
-7 6 -8 10 -11 36 0 5 -5 7 -11 4 -5 -3 -10 1 -10 9 0 9 -9 25 -20 36 -17 17
-19 28 -14 56 6 30 4 36 -15 41 -11 3 -21 11 -21 18 0 7 -7 18 -15 25 -9 8
-12 22 -8 41 4 23 2 29 -12 29 -13 0 -16 6 -13 25 3 14 -1 30 -8 36 -8 6 -14
20 -14 30 0 10 -5 21 -10 24 -7 5 -8 11 -1 19 6 7 7 26 1 51 -5 21 -6 44 -2
49 3 6 7 45 8 86 4 116 23 275 34 278 6 2 10 16 10 32 0 36 32 162 58 227 27
67 39 172 22 202 -11 22 -12 22 -25 4 -12 -15 -14 -16 -15 -2 0 12 -7 15 -27
11 -16 -2 -33 -8 -38 -13 -6 -4 -30 -11 -53 -15 -23 -4 -45 -11 -48 -15 -3 -5
-18 -9 -35 -9 -16 0 -29 -5 -29 -10 0 -12 -48 -34 -67 -31 -6 1 -14 -3 -18 -9
-3 -5 -15 -10 -26 -10 -10 0 -19 -5 -19 -11 0 -5 -15 -17 -32 -25 -76 -35
-140 -84 -134 -101 3 -7 -10 -23 -29 -36 -19 -12 -35 -29 -35 -38 0 -17 -48
-73 -65 -76 -15 -3 -18 -32 -5 -48 10 -12 9 -15 -9 -15 -13 0 -19 -4 -16 -10
4 -6 -3 -18 -15 -28 -11 -10 -23 -34 -27 -57 -3 -22 -12 -44 -20 -48 -17 -10
-17 -31 0 -24 8 3 14 -3 14 -15 1 -12 -3 -18 -10 -15 -9 3 -12 -5 -9 -29 2
-19 -1 -41 -8 -49 -13 -15 -5 -55 14 -67 6 -4 7 -10 3 -14 -3 -4 -13 -1 -22 6
-8 7 -15 8 -15 3 0 -5 9 -15 19 -23 21 -14 19 -31 -2 -26 -7 1 -9 1 -4 -1 13
-8 7 -31 -10 -37 -14 -6 -15 -9 -4 -15 9 -6 7 -10 -9 -14 -12 -3 -19 -10 -16
-16 4 -6 13 -8 21 -4 8 3 15 0 15 -6 0 -6 -8 -11 -17 -11 -16 -1 -16 -2 -2
-13 13 -10 13 -16 2 -37 -11 -21 -10 -27 3 -36 12 -9 12 -13 2 -16 -11 -4 -10
-8 1 -21 12 -15 11 -17 -5 -17 -17 0 -16 -3 6 -21 l25 -21 -29 7 c-26 5 -28 4
-17 -9 11 -13 11 -16 -3 -16 -10 0 -14 -5 -11 -11 4 -6 14 -8 22 -5 8 3 11 1
8 -4 -3 -6 -1 -10 4 -10 6 0 11 -5 11 -11 0 -6 -9 -9 -20 -6 -26 7 -25 0 3
-24 12 -10 16 -18 9 -19 -7 0 -12 -6 -11 -12 5 -38 -2 -60 -16 -54 -8 3 -19
-3 -25 -14 -8 -15 -5 -23 16 -39 15 -12 31 -21 35 -21 5 0 9 -5 9 -11 0 -6 -9
-8 -22 -4 -17 6 -20 4 -15 -9 5 -11 1 -16 -13 -16 -11 0 -20 7 -20 15 0 9 -9
15 -22 15 -22 -1 -22 -1 5 -23 29 -24 35 -39 15 -35 -7 2 -12 -3 -10 -11 2
-10 -4 -12 -23 -7 -14 4 -25 3 -25 -1 0 -16 42 -34 62 -27 14 4 18 3 13 -5 -4
-7 -2 -18 5 -26 9 -11 6 -12 -24 -3 -27 9 -37 8 -49 -3 -7 -8 -12 -20 -9 -27
2 -6 -3 -12 -12 -12 -21 0 -20 -10 2 -26 16 -13 16 -13 -3 -14 -12 0 -26 5
-33 12 -18 18 -22 7 -13 -33 6 -24 4 -41 -4 -52 -13 -19 -35 -23 -35 -7 0 6
-7 10 -15 10 -13 0 -13 -3 1 -26 14 -20 23 -24 43 -19 20 4 22 3 11 -5 -10 -6
-11 -10 -2 -10 6 0 12 -4 12 -10 0 -5 -7 -10 -15 -10 -8 0 -15 5 -15 10 0 6
-9 10 -20 10 -11 0 -20 5 -20 10 0 6 -7 10 -15 10 -9 0 -12 -6 -8 -15 3 -9 8
-14 11 -11 6 7 62 -33 62 -44 0 -9 -50 8 -60 21 -9 11 -40 18 -40 10 0 -5 18
-18 40 -28 46 -21 60 -43 28 -43 -20 0 -19 -3 10 -28 18 -16 32 -32 32 -36 0
-10 -63 24 -80 44 -10 12 -21 15 -35 9 -20 -8 -20 -8 0 -8 11 -1 27 -10 35
-21 8 -11 20 -20 26 -20 7 0 21 -8 33 -18 24 -20 19 -61 -8 -63 -10 0 -11 -2
-3 -6 16 -6 15 -33 -4 -71 -18 -37 -34 -50 -27 -22 4 14 0 20 -12 20 -11 0
-15 5 -10 19 5 17 1 18 -30 14 -30 -4 -35 -2 -35 16 0 12 4 21 8 21 5 0 15 12
22 28 11 22 14 24 17 10 5 -21 18 -22 61 -7 27 9 30 13 18 25 -19 19 -33 18
-45 -3 -9 -17 -11 -16 -33 5 -14 12 -30 22 -37 22 -8 0 -11 6 -7 15 7 18 -5
20 -22 3 -9 -9 -12 -9 -12 0 0 7 -4 12 -10 12 -21 0 -9 -20 15 -26 14 -3 31
-16 37 -28 10 -19 10 -20 -5 -7 -15 12 -17 11 -17 -3 0 -9 -7 -19 -16 -23 -13
-5 -13 -7 -2 -14 10 -7 10 -9 1 -9 -7 0 -13 -11 -13 -24 0 -18 -6 -26 -22 -28
-11 -2 -22 -11 -24 -20 -4 -29 -28 -47 -48 -36 -15 9 -16 11 -3 21 9 7 17 21
19 32 2 11 10 19 17 17 7 -1 10 2 6 7 -16 27 -69 -20 -72 -64 -1 -16 -7 -31
-13 -33 -8 -3 -7 -8 1 -18 16 -19 33 -18 25 2 -5 12 -2 15 10 10 10 -4 25 1
35 10 11 10 19 13 19 8 0 -5 8 1 18 13 20 26 53 33 60 14 3 -9 0 -12 -10 -8
-20 7 -38 -11 -38 -39 0 -20 -24 -40 -42 -36 -5 1 -8 -2 -8 -8 0 -5 5 -10 10
-10 6 0 16 -11 22 -25 10 -22 8 -29 -12 -50 -12 -13 -32 -26 -44 -28 -16 -3
-15 -5 7 -6 15 0 27 4 27 9 0 17 18 11 46 -15 34 -32 68 -32 110 0 20 15 34
20 36 14 3 -9 9 -9 23 -1 11 6 28 13 37 16 23 7 23 25 -1 34 -14 5 -17 12 -10
30 7 18 16 22 51 22 l43 0 -29 15 c-16 9 -38 13 -50 10 -14 -4 -12 -1 7 10 21
12 26 21 22 36 -5 15 -2 19 15 19 12 0 19 -4 16 -9 -9 -13 24 -71 40 -71 8 0
17 0 22 0 4 0 7 6 7 13 1 6 6 11 13 9 18 -3 14 16 -5 28 -16 10 -16 10 2 8 11
-2 23 -7 27 -13 4 -5 10 -1 14 10 8 20 23 38 82 96 17 18 32 39 32 46 0 8 5
11 10 8 6 -4 27 11 48 32 20 21 69 65 107 98 39 33 73 64 77 70 11 16 76 16
82 -1 4 -9 -1 -14 -14 -14 -12 0 -20 -7 -20 -16 0 -10 -6 -13 -19 -9 -12 3
-21 0 -25 -10 -3 -9 -2 -13 4 -10 6 3 10 1 10 -5 0 -7 8 -9 20 -5 11 4 20 2
20 -4 0 -6 -9 -11 -19 -11 -11 0 -23 -4 -26 -10 -3 -5 3 -10 15 -10 11 0 23
-7 27 -15 11 -29 -6 -27 -37 5 -17 18 -32 30 -34 29 -1 -2 -7 -16 -14 -31 -15
-37 -34 -37 -26 -1 4 16 4 25 0 22 -8 -8 -20 -86 -17 -114 10 -100 3 -170 -12
-115 -3 11 -10 20 -16 20 -15 0 -14 -43 1 -58 8 -8 8 -15 -1 -26 -7 -8 -10
-20 -6 -26 12 -19 25 -10 26 18 0 27 0 27 10 4 9 -24 2 -72 -11 -72 -4 0 -18
10 -31 22 -14 13 -31 23 -39 22 -8 0 -26 3 -40 7 -21 5 -26 3 -26 -12 0 -11 6
-19 12 -19 7 0 11 -8 9 -17 -2 -10 -4 -26 -4 -35 -1 -10 -8 -18 -16 -18 -8 0
-15 8 -15 18 -1 13 -4 11 -14 -8 l-14 -25 -7 38 c-10 51 -21 42 -24 -20 -1
-26 -2 -26 -16 -7 -8 10 -15 35 -16 54 l-1 35 -10 -35 c-7 -24 -6 -36 1 -38
16 -5 14 -32 -2 -32 -8 0 -18 17 -24 38 l-10 37 -2 -32 c0 -17 3 -34 8 -37 5
-3 9 -17 9 -31 0 -23 -2 -24 -14 -8 -11 15 -13 16 -18 3 -3 -8 -4 -24 -3 -35
1 -14 -3 -19 -17 -17 -11 2 -15 -1 -11 -7 3 -6 2 -11 -4 -11 -5 0 -11 4 -13 9
-1 5 -14 11 -28 13 -23 3 -25 0 -22 -31 1 -19 6 -39 11 -45 16 -21 32 -86 26
-105 -8 -28 -45 -35 -45 -9 0 14 5 18 15 14 11 -4 15 2 15 22 l0 26 -16 -22
c-8 -12 -24 -22 -34 -22 -10 0 -24 -8 -29 -18 -9 -15 -10 -14 -11 8 0 20 -2
22 -10 10 -5 -8 -10 -11 -10 -6 0 5 -7 3 -15 -4 -8 -7 -15 -9 -15 -6 0 4 -7 0
-16 -8 -8 -9 -25 -15 -37 -15 -20 1 -20 2 -2 6 40 11 61 63 24 63 -15 0 -19
-5 -15 -15 4 -10 -3 -20 -20 -27 -23 -11 -29 -9 -45 11 -26 32 -34 70 -20 93
10 16 8 18 -15 18 -14 0 -53 11 -87 24 -108 43 -273 95 -334 105 -32 6 -87 17
-123 26 -79 18 -289 20 -356 4 -99 -24 -159 -67 -169 -120 -2 -10 -8 -27 -14
-36 -8 -14 -10 -3 -11 45 0 34 4 70 8 80 69 142 103 209 139 267 24 38 41 75
38 82 -2 7 1 13 8 13 15 0 62 59 54 67 -8 8 -48 -17 -42 -27 3 -5 -12 -21 -34
-37 -34 -24 -37 -29 -22 -39 14 -11 13 -13 -10 -19 -17 -4 -29 -17 -38 -41 -8
-22 -18 -34 -26 -30 -7 2 -16 -2 -19 -10 -3 -8 -13 -14 -23 -14 -13 0 -14 -3
-5 -12 18 -18 15 -28 -8 -28 -11 0 -20 -4 -20 -8 0 -5 -10 -14 -23 -20 -18 -9
-19 -11 -4 -11 15 -1 16 -3 5 -15 -7 -8 -16 -12 -19 -10 -4 2 -9 -3 -13 -11
-3 -8 -1 -15 4 -15 6 0 10 -5 10 -11 0 -8 -4 -8 -13 -1 -19 16 -53 11 -67 -11
-10 -17 -9 -18 21 -12 22 5 29 4 25 -4 -4 -6 -14 -11 -22 -11 -8 0 -14 -4 -14
-10 0 -5 -9 -10 -20 -10 -11 0 -20 -7 -20 -15 0 -13 4 -14 21 -4 36 19 12 -8
-37 -42 -35 -24 -43 -34 -34 -44 9 -10 3 -16 -24 -26 -26 -10 -36 -19 -36 -35
0 -12 -15 -34 -35 -51 -19 -17 -32 -33 -29 -36 9 -9 -16 -47 -31 -47 -18 0
-20 -26 -2 -33 9 -4 9 -6 0 -6 -12 -1 -20 -7 -75 -53 -12 -10 -25 -18 -30 -18
-5 0 -6 -5 -2 -11 4 -8 9 -8 17 0 6 6 15 11 19 11 4 0 -1 -9 -12 -20 -11 -11
-25 -20 -31 -20 -5 0 -16 -15 -24 -33 -7 -18 -34 -51 -60 -72 -25 -22 -48 -50
-52 -63 -3 -12 -14 -27 -24 -33 -11 -5 -17 -14 -14 -20 4 -5 13 -3 21 6 18 17
34 20 34 5 0 -5 -7 -10 -15 -10 -8 0 -19 -9 -25 -20 -6 -11 -17 -20 -25 -20
-8 0 -15 -4 -15 -9 0 -5 -9 -13 -20 -16 -11 -3 -20 -13 -20 -22 0 -8 -9 -17
-21 -20 -16 -5 -18 -8 -7 -15 13 -9 9 -14 -60 -68 -25 -20 -26 -21 -5 -17 13
3 23 3 23 0 0 -8 -24 -29 -48 -42 -12 -6 -22 -18 -22 -25 0 -8 -9 -16 -20 -19
-11 -3 -20 -11 -20 -17 0 -9 4 -9 17 1 15 13 15 12 4 -10 -7 -13 -22 -26 -32
-28 -10 -3 -19 -12 -19 -19 0 -12 -19 -19 -43 -15 -4 1 -5 -14 -2 -32 6 -29 3
-35 -14 -40 -15 -4 -19 -11 -15 -31 2 -15 0 -26 -6 -26 -6 0 -8 4 -5 10 3 5 0
10 -8 10 -12 0 -15 -47 -16 -305 -1 -168 0 -305 3 -305 3 0 18 12 33 26 15 14
36 32 45 41 9 9 23 13 30 10 9 -3 15 4 16 20 1 20 -2 24 -14 19 -14 -5 -15 -4
-4 9 7 8 16 12 21 9 5 -3 19 2 31 11 22 16 22 17 2 11 -15 -5 -21 -2 -21 10 0
12 7 15 28 10 32 -6 48 8 49 42 0 4 5 0 10 -8 8 -11 9 -8 4 11 -6 29 13 50 26
28 7 -10 11 -10 25 1 15 13 15 15 -4 22 -12 4 -21 12 -21 19 0 6 7 8 17 5 9
-4 20 -1 25 6 5 9 8 5 8 -12 0 -19 2 -22 9 -11 6 9 6 22 0 34 -6 10 -8 23 -5
30 2 7 5 4 5 -5 1 -10 7 -18 14 -19 6 0 22 -2 34 -3 18 -2 20 1 13 14 -11 20
-4 31 16 23 18 -6 19 28 2 45 -9 9 -9 15 1 25 10 10 11 8 5 -7 -6 -15 -3 -17
13 -12 14 4 27 0 39 -11 17 -17 18 -17 11 0 -4 10 -7 21 -7 23 0 2 -7 4 -16 4
-9 0 -14 6 -11 13 2 6 9 11 14 10 16 -3 11 26 -6 32 -13 5 -14 7 -1 15 23 15
30 12 30 -10 0 -17 3 -19 19 -8 16 10 17 15 8 26 -9 11 -7 16 7 24 13 7 16 17
11 35 -5 21 -3 24 10 19 9 -3 18 -6 20 -6 2 0 1 -9 -2 -19 -5 -19 -4 -19 30
-3 21 10 30 20 23 24 -6 4 -12 3 -14 -2 -8 -21 -19 -9 -14 15 4 21 7 23 19 14
11 -10 15 -8 20 9 3 12 9 19 14 16 5 -3 9 0 9 5 0 6 -5 11 -11 11 -5 0 -7 5
-3 11 4 8 9 8 13 1 4 -6 19 -16 34 -21 18 -7 26 -7 22 -1 -3 6 -12 10 -19 10
-14 0 -40 49 -31 58 3 3 5 0 5 -6 0 -7 6 -12 14 -12 8 0 16 -6 18 -12 4 -10
10 -10 32 0 15 6 25 16 22 21 -4 5 4 7 16 3 22 -5 22 -4 6 15 -10 11 -18 26
-18 34 0 11 -2 11 -9 1 -6 -10 -10 -10 -20 1 -9 12 -7 16 16 22 21 5 24 8 13
15 -12 7 -11 10 5 16 11 5 20 3 23 -4 6 -18 42 -15 42 3 0 9 10 20 23 25 19 7
19 9 3 9 -10 1 -25 -7 -32 -16 -7 -10 -15 -16 -18 -13 -2 3 10 22 27 41 35 40
77 67 77 49 0 -5 -6 -10 -14 -10 -21 0 -40 -26 -25 -36 7 -4 17 0 24 9 16 22
34 22 50 0 13 -18 51 -11 40 7 -5 8 -11 8 -20 0 -11 -9 -14 -7 -13 12 0 26 18
78 26 78 2 0 13 -9 22 -20 10 -12 21 -17 24 -11 8 12 -3 39 -17 43 -8 2 -10
16 -6 43 l6 40 2 -36 c0 -23 7 -39 17 -43 24 -9 24 -9 24 29 0 58 18 85 57 85
22 0 33 5 32 13 -1 6 1 20 6 30 4 9 5 31 3 47 -5 32 -2 35 22 20 9 -6 17 -5
22 3 5 8 8 6 8 -5 0 -10 5 -18 10 -18 15 0 12 17 -6 35 -24 23 -10 29 21 9 26
-17 28 -17 44 3 9 11 24 23 34 27 13 4 17 12 12 27 -5 14 -3 19 3 15 6 -3 12
-3 15 1 2 5 2 2 1 -4 -2 -7 1 -13 6 -13 6 0 10 4 10 9 0 5 8 12 17 14 17 4 17
5 1 6 -27 2 -22 18 7 25 15 4 25 14 25 24 0 15 2 15 10 2 8 -13 10 -12 10 4 0
12 5 16 15 12 8 -3 15 -1 15 4 0 6 8 2 18 -7 18 -17 18 -18 0 -27 -21 -10 -23
-22 -7 -32 7 -4 16 0 21 9 6 12 15 14 31 8 12 -4 28 -6 36 -3 7 2 17 -2 22 -9
5 -8 9 -9 9 -3 0 7 12 14 27 17 64 13 88 23 88 37 0 8 7 13 15 11 33 -8 45 -5
43 9 -2 9 15 26 36 40 22 13 37 28 34 33 -3 6 1 15 9 21 8 6 17 19 21 29 4 9
15 21 24 25 10 4 18 14 18 22 0 10 8 14 28 12 15 -2 27 1 27 8 0 7 6 6 15 -4
8 -8 15 -22 15 -31 0 -10 7 -15 17 -13 14 2 18 -4 17 -27 0 -16 4 -33 10 -37
6 -4 5 -12 -4 -22 -7 -9 -9 -20 -5 -24 4 -4 10 -1 12 6 3 6 9 12 15 12 7 0 6
-5 -1 -14 -6 -7 -9 -20 -5 -29 7 -20 -13 -57 -31 -57 -9 0 -12 -6 -9 -15 4 -9
0 -15 -10 -15 -9 0 -16 -4 -16 -10 0 -17 18 -11 40 12 l20 22 0 -22 c0 -13 -6
-22 -15 -22 -8 0 -15 -8 -15 -17 0 -10 4 -14 8 -8 4 6 12 11 19 12 9 2 10 -4
3 -22 -8 -20 -6 -25 6 -25 14 0 14 -2 0 -16 -20 -20 -21 -38 -1 -30 8 3 15 1
15 -5 0 -5 -7 -12 -15 -15 -8 -4 -15 -13 -15 -20 0 -8 -7 -17 -15 -20 -8 -4
-15 -10 -15 -15 0 -5 11 -2 25 7 29 19 49 9 22 -10 -24 -19 -23 -40 2 -26 35
18 36 11 3 -19 -17 -17 -27 -33 -22 -36 6 -3 10 -3 10 2 0 4 7 -5 15 -21 14
-26 14 -31 -2 -50 -10 -12 -22 -24 -28 -28 -5 -4 -6 -10 -2 -14 3 -4 12 -2 19
3 7 5 22 13 33 17 18 7 18 6 -2 -16 -16 -17 -19 -27 -12 -41 7 -13 6 -21 -5
-33 -17 -17 -20 -27 -9 -37 3 -4 12 2 20 13 8 11 19 20 24 20 14 0 -23 -49
-38 -50 -6 0 -13 5 -15 12 -3 7 -9 8 -18 3 -10 -6 -9 -10 8 -16 21 -8 22 -39
1 -39 -5 0 -9 -5 -9 -11 0 -7 10 -5 25 5 27 17 35 7 11 -14 -8 -6 -12 -18 -9
-26 3 -8 -1 -14 -10 -14 -9 0 -19 -4 -22 -10 -11 -18 21 -11 45 10 33 29 46
25 14 -5 -15 -14 -34 -25 -43 -25 -14 0 -14 -2 -1 -11 11 -8 12 -12 3 -16 -18
-7 -16 -23 5 -40 12 -10 14 -16 5 -19 -7 -3 -13 -10 -13 -16 0 -5 13 0 29 11
49 35 48 20 -1 -27 -23 -22 -23 -28 4 -35 l22 -6 -24 -27 c-25 -27 -24 -28 25
-8 8 3 15 1 15 -5 0 -7 -7 -14 -15 -17 -8 -4 -15 -12 -15 -20 0 -7 -7 -17 -16
-22 -12 -7 -13 -11 -5 -16 7 -4 18 -2 26 4 11 9 15 9 15 1 0 -6 -4 -11 -10
-11 -5 0 -10 -7 -10 -15 0 -7 -7 -18 -15 -22 -9 -6 -11 -13 -5 -23 8 -13 11
-12 24 5 9 11 16 14 16 7 0 -14 -19 -49 -37 -70 -7 -7 -13 -18 -13 -25 0 -6 6
-4 13 5 6 9 24 23 38 32 26 16 26 16 21 -9 -2 -15 -10 -24 -16 -22 -6 3 -22
-13 -36 -34 -13 -22 -30 -39 -37 -39 -7 0 -13 -7 -13 -15 0 -23 15 -18 30 10
7 14 17 25 22 25 11 0 -1 -44 -13 -48 -10 -4 -12 -32 -3 -32 3 0 14 5 25 10
29 16 23 3 -27 -56 -46 -53 -56 -86 -15 -45 35 35 55 24 26 -15 -8 -10 -15
-22 -15 -26 0 -15 29 -8 39 9 5 10 13 14 18 10 4 -5 -2 -17 -14 -27 -13 -10
-23 -23 -23 -29 0 -7 90 -10 278 -10 263 0 278 1 290 19 14 23 1 34 -29 25
-18 -6 -19 -5 -8 14 7 11 23 25 36 32 13 7 23 20 23 30 0 10 8 23 18 29 15 9
14 10 -8 8 -17 -2 -24 -8 -22 -19 3 -19 -35 -33 -45 -16 -3 5 6 21 20 33 15
13 27 26 27 30 0 4 7 16 17 26 15 17 15 18 -1 18 -9 0 -20 -8 -23 -17 -4 -10
-14 -23 -22 -30 -9 -7 -12 -13 -7 -13 5 0 1 -9 -8 -19 -14 -16 -15 -23 -5 -39
11 -17 8 -24 -21 -52 -21 -21 -35 -29 -38 -21 -2 7 5 21 17 32 27 25 27 42 1
34 -28 -9 -25 3 15 59 19 27 33 52 30 54 -8 8 -55 -47 -55 -64 0 -9 -9 -18
-20 -21 -11 -3 -20 -12 -20 -19 0 -8 -7 -14 -16 -14 -11 0 -14 5 -10 16 3 9 6
18 6 20 0 2 7 4 15 4 8 0 15 7 15 14 0 8 11 27 25 42 14 15 25 32 25 38 0 6
16 27 36 46 20 19 31 36 26 38 -9 3 -35 -21 -80 -73 -6 -8 -12 -18 -12 -23 0
-5 -7 -9 -15 -9 -21 0 -19 12 8 41 74 83 104 126 88 126 -6 0 -14 -7 -19 -16
-7 -12 -11 -13 -16 -5 -4 7 0 23 8 36 21 33 2 32 -28 0 -24 -25 -46 -33 -46
-15 0 5 6 13 13 17 18 11 29 43 16 43 -6 0 -13 -9 -16 -19 -3 -10 -16 -21 -29
-24 -31 -6 -31 8 1 29 20 13 23 19 14 31 -7 8 -19 11 -28 8 -9 -3 -5 5 9 18
33 30 68 91 49 85 -8 -3 -18 -13 -24 -24 -14 -26 -39 -24 -47 5 -7 25 6 61 22
61 6 0 10 6 10 13 0 6 9 23 20 37 23 30 26 48 5 30 -8 -7 -15 -19 -15 -26 0
-8 -7 -14 -15 -14 -8 0 -15 -7 -15 -15 0 -8 -7 -15 -15 -15 -20 0 -8 29 25 60
25 25 36 60 18 60 -4 0 -8 -4 -8 -9 0 -10 -30 -24 -37 -17 -3 3 4 15 16 27 11
12 18 25 15 28 -3 3 -11 -2 -18 -11 -7 -10 -16 -15 -20 -11 -4 4 -9 -3 -13
-15 -3 -12 -10 -22 -15 -22 -5 0 -6 10 -3 21 5 14 2 25 -6 30 -11 6 -11 11 -1
21 9 9 15 8 27 -8 13 -17 14 -17 15 -1 0 9 6 17 13 17 7 0 14 11 15 26 1 14
-2 23 -8 19 -6 -3 -10 -12 -10 -18 0 -7 -9 -13 -20 -13 -18 0 -18 2 -4 23 8
13 12 29 8 35 -4 6 -12 -3 -20 -21 -7 -17 -18 -31 -24 -31 -14 0 -13 7 6 35
11 17 13 29 6 42 -7 12 -7 25 -1 35 6 11 5 19 -2 23 -6 4 -13 -2 -16 -14 -3
-12 -9 -21 -14 -21 -17 0 -9 17 31 61 22 24 40 48 40 53 0 9 -35 -17 -57 -43
-7 -8 -16 -11 -20 -8 -4 4 -1 13 5 19 16 16 15 28 -2 28 -8 0 -16 -8 -18 -17
-2 -12 -6 -14 -11 -6 -4 6 -2 18 5 25 48 51 52 58 34 58 -9 0 -21 -10 -25 -22
-8 -19 -10 -20 -16 -7 -4 11 2 26 17 42 34 37 48 55 48 63 0 3 -6 1 -14 -5
-20 -17 -59 -4 -73 24 -6 14 -8 27 -3 30 4 3 11 -2 14 -11 5 -14 8 -14 23 2
13 12 14 19 5 22 -16 5 -15 30 3 48 8 9 11 22 7 32 -6 14 -7 14 -10 -6 -2 -12
-8 -22 -14 -22 -6 0 -7 7 -3 18 4 9 7 26 7 37 -1 10 4 25 10 32 8 10 4 13 -17
13 -25 0 -26 3 -24 37 3 29 0 38 -12 37 -8 -1 -15 7 -15 16 0 10 5 16 12 13 6
-2 17 3 24 12 7 8 24 16 39 16 20 1 22 2 6 6 -45 11 -32 19 19 12 58 -8 96 -3
96 12 0 5 -7 9 -15 9 -17 0 -19 9 -5 30 7 11 10 12 10 2 0 -7 6 -19 13 -27 17
-16 67 -8 67 11 0 8 5 14 10 14 6 0 10 6 10 14 0 9 -7 12 -19 9 -15 -4 -21 2
-26 26 -4 17 -11 31 -16 31 -6 0 -7 10 -3 22 6 20 5 21 -10 9 -9 -7 -16 -24
-16 -37 0 -13 -4 -24 -9 -24 -4 0 -6 11 -3 25 3 19 0 25 -13 25 -12 0 -15 5
-11 16 3 9 6 20 6 26 0 6 7 8 15 5 8 -4 17 -2 20 3 4 6 15 10 26 10 14 0 19
-7 19 -29 0 -16 3 -36 6 -45 9 -23 34 -20 34 5 0 12 4 17 11 14 6 -4 8 -14 5
-22 -7 -19 20 -47 39 -40 7 3 16 1 18 -6 2 -8 18 -2 46 17 23 16 44 27 46 24
3 -3 -14 -18 -37 -34 -24 -16 -46 -33 -50 -39 -13 -17 -9 -27 7 -21 10 4 15
-1 15 -14 0 -11 5 -20 12 -20 6 0 8 -3 5 -6 -4 -4 -13 -1 -21 5 -10 8 -16 9
-21 1 -3 -5 2 -11 12 -12 10 -1 27 -2 38 -3 11 -1 26 -3 33 -4 6 0 12 -7 12
-15 0 -9 7 -12 20 -9 17 5 20 0 20 -26 0 -24 4 -31 19 -31 11 0 27 -8 37 -18
10 -9 22 -17 27 -17 20 0 18 -23 -2 -30 -21 -6 -29 -25 -11 -25 6 0 10 5 10
10 0 6 5 10 10 10 6 0 10 -7 10 -16 0 -9 5 -12 12 -8 7 5 9 1 6 -13 -3 -12 -2
-27 3 -34 7 -11 9 -11 9 -1 0 15 29 48 32 35 0 -4 2 -12 3 -18 2 -5 3 -22 4
-37 0 -16 6 -28 11 -28 7 0 8 13 5 34 -5 26 -3 35 10 40 14 5 16 2 12 -14 -3
-13 -1 -18 6 -13 7 4 8 0 4 -11 -5 -13 -3 -17 11 -14 9 2 16 11 16 21 -1 9 2
17 7 17 13 0 11 -44 -3 -58 -17 -17 4 -36 40 -37 20 0 28 -6 30 -22 4 -26 12
-29 30 -11 9 9 12 9 12 -3 0 -8 -5 -20 -12 -27 -6 -6 -8 -15 -4 -19 4 -4 11
-1 15 6 6 10 10 10 16 2 3 -7 15 -9 25 -6 15 5 20 -1 26 -29 5 -31 9 -34 25
-26 14 8 20 6 29 -10 6 -11 8 -25 5 -30 -3 -6 1 -10 9 -10 9 0 16 5 16 10 0
17 14 11 28 -11 18 -28 6 -61 -21 -57 -11 2 -22 9 -25 16 -2 8 2 12 9 10 8 -1
15 2 16 7 1 6 -12 10 -30 10 -17 0 -38 4 -46 9 -12 8 -10 11 8 18 34 12 16 28
-21 17 -17 -5 -34 -7 -36 -4 -6 6 -32 -21 -32 -34 0 -5 14 -18 30 -28 30 -17
39 -33 20 -33 -21 0 -9 -30 13 -31 12 0 16 -3 10 -6 -7 -2 -13 -9 -13 -14 0
-6 6 -7 13 -4 6 4 4 0 -5 -8 -20 -16 -24 -32 -6 -21 18 11 48 12 48 2 0 -4 -4
-8 -10 -8 -16 0 -12 -22 8 -37 12 -10 14 -16 5 -19 -7 -3 -13 -13 -13 -21 0
-8 6 -13 13 -10 6 3 20 8 30 12 9 4 17 3 17 -3 0 -5 -7 -12 -15 -16 -8 -3 -15
-12 -15 -20 0 -8 -6 -17 -12 -19 -8 -3 -7 -6 4 -6 9 -1 20 4 23 9 3 6 10 10
16 10 15 0 10 -22 -8 -36 -10 -7 -15 -16 -11 -19 4 -4 14 0 23 9 9 9 19 16 22
16 10 0 -10 -65 -23 -73 -8 -4 -14 -13 -14 -18 0 -6 13 -1 29 11 33 23 56 9
25 -15 -20 -15 -8 -20 20 -9 9 3 13 11 9 18 -3 6 -1 6 8 -1 10 -10 10 -16 1
-25 -7 -7 -12 -23 -12 -37 0 -24 1 -24 15 -5 8 10 15 17 16 14 6 -30 3 -50 -8
-50 -7 0 -13 -4 -13 -10 0 -15 16 -12 30 5 17 21 30 19 30 -5 0 -11 -7 -20
-15 -20 -8 0 -15 -9 -15 -19 0 -11 -6 -22 -12 -24 -9 -4 -7 -6 3 -6 9 -1 28
10 43 24 14 13 26 20 26 15 0 -5 -5 -12 -10 -15 -6 -3 -10 -15 -10 -26 0 -10
-7 -19 -15 -19 -8 0 -15 -9 -15 -20 0 -11 -4 -20 -10 -20 -5 0 -10 -5 -10 -12
0 -6 13 1 29 16 27 26 29 26 34 7 3 -12 -3 -27 -14 -37 -11 -9 -17 -19 -14
-22 3 -3 14 3 24 12 11 10 25 16 32 14 8 -3 5 -11 -9 -24 -17 -16 -18 -22 -7
-37 12 -17 14 -16 34 10 26 35 27 9 1 -32 -31 -49 -50 -88 -46 -92 2 -2 22 21
46 52 23 30 46 55 50 55 12 0 -1 -48 -16 -61 -8 -6 -14 -19 -14 -28 1 -12 7
-9 25 11 26 31 40 36 31 13 -3 -8 0 -15 7 -16 7 0 2 -4 -10 -9 -24 -10 -27
-22 -13 -55 8 -19 9 -19 9 3 1 13 7 22 16 22 8 0 15 8 15 18 0 14 2 14 9 3 15
-24 -20 -88 -41 -75 -4 3 -8 1 -8 -5 0 -5 5 -11 11 -13 8 -3 5 -10 -6 -21 -9
-10 -15 -20 -12 -23 3 -3 14 7 24 23 26 41 42 55 53 48 15 -10 12 -35 -5 -35
-8 0 -15 -6 -15 -14 0 -8 -3 -23 -6 -33 -4 -12 2 -9 18 10 24 27 48 36 48 17
0 -5 -4 -10 -9 -10 -5 0 -11 -11 -13 -25 -7 -33 14 -33 32 0 10 19 16 22 24
14 8 -8 7 -13 -1 -16 -7 -3 -13 -9 -13 -14 0 -6 56 -8 137 -7 122 3 138 5 141
21 2 11 -3 17 -13 17 -13 0 -16 6 -13 25 4 20 1 25 -16 24 -11 0 -15 -3 -8 -6
6 -2 12 -10 12 -16 0 -6 -8 -3 -18 6 -11 12 -13 20 -6 25 11 7 25 62 16 62 -2
0 -14 -10 -25 -22 l-20 -23 7 38 c7 37 6 38 -15 32 -19 -6 -21 -5 -14 11 4 11
10 30 13 43 4 21 2 23 -17 18 -14 -3 -21 -1 -21 9 0 8 -7 14 -15 14 -11 0 -13
8 -8 30 5 26 3 30 -18 31 -13 0 -18 3 -11 6 22 9 12 25 -13 21 -18 -4 -23 -2
-17 6 5 6 12 22 15 35 4 17 1 24 -14 28 -10 3 -19 9 -19 14 0 5 -10 9 -22 10
-13 0 -17 3 -10 6 6 2 12 9 12 14 0 6 -5 7 -11 3 -8 -4 -9 0 -4 15 5 16 3 20
-9 15 -13 -5 -15 0 -12 28 4 32 3 35 -18 31 -29 -6 -53 21 -37 40 6 8 8 17 4
20 -3 4 2 9 11 13 15 6 15 9 -6 31 l-23 25 42 -3 c33 -3 46 1 57 16 18 25 34
11 18 -15 -16 -26 -15 -33 4 -26 12 4 14 1 9 -14 -7 -23 13 -28 21 -5 4 8 16
15 28 15 14 0 17 -3 8 -8 -10 -7 -10 -16 -1 -42 11 -29 13 -31 24 -16 10 12
18 14 36 8 13 -5 29 -7 35 -5 6 2 14 -3 17 -10 4 -11 0 -13 -14 -10 -20 5 -38
-22 -24 -35 4 -4 10 -1 12 6 8 21 28 13 41 -18 13 -29 14 -29 38 -14 28 19 30
11 9 -30 -12 -23 -12 -27 -1 -23 7 3 18 1 24 -5 7 -7 17 -6 31 1 17 10 21 9
21 -4 0 -8 -7 -15 -15 -15 -8 0 -15 -7 -15 -15 0 -22 40 -19 41 3 1 11 4 9 9
-8 4 -14 8 -18 9 -10 1 9 10 16 21 17 22 2 24 -4 10 -27 -6 -10 -4 -20 6 -32
9 -9 13 -22 9 -27 -3 -6 1 -11 9 -11 9 0 16 6 16 14 0 7 7 19 15 26 19 16 19
3 0 -33 -13 -26 -13 -28 3 -25 9 1 23 -1 30 -5 7 -5 19 -2 28 7 24 24 35 19
23 -10 -7 -21 -6 -31 6 -44 8 -9 15 -22 15 -29 0 -9 8 -11 25 -7 18 5 25 2 25
-9 0 -21 9 -19 30 8 10 12 22 19 26 15 4 -4 1 -15 -7 -24 -11 -13 -11 -18 -1
-21 6 -3 12 -10 12 -17 0 -7 7 -21 16 -32 8 -10 12 -13 8 -5 -3 7 0 17 7 22
24 15 29 10 19 -17 -13 -32 -12 -37 1 -29 6 4 17 -1 25 -11 11 -14 17 -15 20
-6 9 21 22 13 29 -19 6 -26 10 -30 31 -25 17 5 24 2 24 -9 0 -8 -4 -15 -10
-15 -5 0 -10 -4 -10 -10 0 -5 7 -10 15 -10 8 0 15 -4 15 -10 0 -7 159 -10 457
-10 355 0 454 3 445 12 -16 16 -15 28 2 28 9 0 12 7 9 20 -3 12 0 20 7 20 7 0
10 7 7 15 -7 18 9 30 17 13 3 -7 3 -3 0 9 -5 20 16 80 50 143 8 14 43 82 80
153 74 143 89 170 96 177 3 3 11 16 18 30 6 14 16 32 22 40 5 8 21 42 36 75
15 33 42 83 60 110 18 28 36 64 40 80 4 17 10 32 14 35 9 7 40 76 40 89 0 6 4
11 10 11 5 0 12 11 16 25 3 14 10 25 15 25 5 0 9 6 9 13 0 8 9 22 20 32 11 10
20 22 20 27 0 5 8 20 17 35 10 14 18 33 20 42 1 9 11 22 22 30 13 8 21 24 21
43 0 20 4 27 12 22 8 -5 9 -2 5 9 -7 18 10 67 27 78 5 4 6 17 3 29 -4 16 -2
20 8 16 9 -3 16 6 21 27 3 17 15 43 26 58 11 14 22 45 25 67 3 23 10 42 16 42
6 0 7 3 4 6 -4 4 3 20 14 36 12 16 23 48 26 71 4 39 3 41 -11 23 -9 -11 -16
-16 -16 -12 0 5 -7 3 -15 -4 -13 -11 -15 -8 -15 19 0 28 3 31 20 26 13 -4 20
-2 20 6 0 8 7 5 20 -6 20 -18 20 -17 20 13 0 21 5 32 15 33 8 1 20 2 27 3 6 0
13 7 16 14 2 8 -7 12 -28 12 -18 0 -29 -4 -25 -10 3 -5 2 -10 -4 -10 -6 0 -7
15 -4 35 4 23 2 35 -6 35 -6 0 -11 5 -11 11 0 5 5 7 10 4 7 -4 9 3 4 22 l-6
28 21 -30 c11 -16 21 -39 22 -50 0 -18 1 -17 10 4 6 15 15 21 24 17 10 -3 15
1 15 12 0 13 2 14 8 4 5 -7 16 -10 24 -7 11 4 18 0 21 -12 4 -16 5 -16 6 2 0
11 -8 31 -19 45 -15 20 -21 23 -31 12 -15 -14 -59 -16 -59 -2 0 6 8 10 18 10
13 0 23 15 36 50 14 39 23 50 40 50 27 1 56 23 56 44 0 10 8 16 25 16 18 0 25
5 25 20 0 11 -4 20 -10 20 -5 0 -10 7 -10 15 0 23 15 18 30 -10 7 -13 17 -22
22 -19 5 3 7 8 4 11 -8 8 13 43 25 43 6 0 8 -9 4 -21 -5 -15 -4 -19 4 -15 6 4
11 20 11 36 0 16 4 31 9 34 4 3 6 -5 4 -18 -3 -13 0 -27 6 -30 8 -5 11 15 11
63 0 41 8 95 20 132 10 34 16 67 13 72 -3 5 -1 12 6 16 6 4 12 25 13 46 2 25
10 45 22 54 33 25 45 74 51 227 4 82 11 157 16 166 6 11 5 19 -2 23 -6 4 -7
14 -4 24 4 9 8 23 9 31 1 8 9 31 17 50 15 33 19 35 60 34 24 -1 50 3 57 9 10
8 14 5 19 -11 7 -27 23 -19 23 11 1 20 2 21 14 5 7 -10 16 -18 20 -18 14 0 5
28 -14 45 l-21 19 25 13 c25 13 90 7 81 -8 -3 -4 -12 -6 -20 -2 -19 7 -19 -14
-1 -33 19 -18 23 -18 28 4 4 15 12 18 37 14 18 -2 35 -11 38 -18 3 -8 11 -14
19 -14 8 0 11 6 7 16 -5 13 -2 15 17 9 15 -5 20 -4 16 4 -4 6 -13 11 -21 11
-8 0 -16 4 -20 9 -3 6 10 7 32 4 21 -3 40 -10 41 -15 2 -4 8 -5 14 -2 6 4 8
-1 3 -15 -5 -15 -2 -21 9 -21 9 0 16 -4 16 -9 0 -5 11 -11 25 -13 13 -3 22 -1
19 3 -3 5 7 14 21 19 36 14 36 13 29 -14 -4 -17 0 -28 13 -37 14 -10 17 -22
13 -44 -4 -22 -8 -26 -14 -16 -7 11 -10 11 -17 0 -15 -24 -10 -31 19 -24 33 8
52 26 35 32 -7 3 -13 11 -13 18 0 7 6 16 13 18 9 4 8 8 -3 16 -13 10 -12 13 5
23 24 15 95 20 95 7 0 -5 9 -9 20 -9 13 0 18 -5 14 -15 -4 -8 -2 -15 4 -15 6
0 12 4 14 9 2 5 21 5 43 1 22 -4 32 -8 23 -9 -19 -1 -26 -41 -7 -41 5 0 7 -5
4 -10 -3 -6 -1 -10 4 -10 6 0 11 -8 11 -18 0 -12 12 -21 38 -28 41 -11 72 -8
72 8 0 5 -12 7 -29 3 -17 -3 -32 -2 -36 4 -3 7 2 11 14 11 12 0 21 5 21 10 0
6 -4 10 -10 10 -5 0 -10 7 -10 15 0 13 4 14 20 5 11 -6 17 -16 14 -25 -4 -10
0 -15 15 -15 21 0 21 1 4 27 -10 16 -23 32 -30 36 -7 4 -13 14 -13 21 0 20
-43 52 -67 50 -13 0 -23 3 -23 8 0 6 7 8 15 4 27 -10 16 15 -25 56 -22 23 -40
45 -40 50 0 4 -7 8 -15 8 -8 0 -15 6 -15 14 0 7 -11 21 -25 30 -14 9 -25 21
-25 26 0 15 -222 247 -331 347 -53 47 -217 171 -302 226 -94 61 -306 187 -346
205 -71 32 -69 28 -53 159 10 90 24 144 58 237 68 183 110 305 129 370 9 33
35 100 57 149 64 143 126 365 159 571 18 112 25 136 40 141 42 14 129 142 129
190 0 11 16 43 35 72 35 52 95 169 95 186 0 5 6 23 14 40 21 46 114 334 125
387 5 25 12 123 16 218 7 166 6 175 -14 215 -44 83 -111 104 -218 68 -34 -12
-67 -21 -72 -21 -13 0 -7 59 13 125 9 28 21 70 27 95 6 25 16 55 22 67 6 13 8
26 4 29 -3 4 -2 14 3 24 5 9 10 50 11 91 2 82 11 109 37 109 10 0 13 3 6 8
-14 9 -25 52 -13 52 14 0 39 69 39 111 0 21 5 41 11 44 6 4 8 13 5 20 -3 8 1
15 8 17 10 2 10 10 -2 38 -10 24 -14 65 -13 130 2 138 1 158 -8 182 -4 12 -2
45 5 77 17 73 19 144 4 211 -7 30 -14 73 -16 95 -2 22 -9 60 -14 85 -5 25 -12
69 -15 99 -3 29 -15 77 -26 105 -10 28 -19 65 -19 81 0 42 -47 213 -70 256
-11 20 -20 44 -20 53 0 9 -11 28 -25 41 -13 14 -20 25 -16 25 5 0 6 12 3 26
-3 18 -7 22 -13 13 -6 -11 -13 -9 -32 9 -18 17 -22 30 -19 54 l5 31 22 -37
c13 -21 26 -33 29 -28 9 15 -13 60 -61 123 -24 30 -43 59 -43 64 0 5 -8 17
-17 28 -14 16 -15 19 -3 15 8 -2 20 -13 25 -24 19 -37 69 -96 73 -86 1 5 -6
25 -17 43 -12 19 -21 42 -21 51 0 10 -9 22 -20 28 -11 6 -20 16 -20 23 0 8
-14 26 -30 42 -17 16 -28 35 -26 41 3 7 -14 30 -37 51 -23 22 -64 65 -92 96
-27 32 -64 68 -82 80 -23 15 -34 32 -38 58 -8 45 -40 76 -96 94 -24 8 -38 14
-31 14 17 1 15 36 -4 73 l-16 31 39 -7 c21 -4 52 -9 68 -12 55 -11 13 12 -46
25 -49 10 -59 17 -86 55 -34 48 -88 78 -210 117 -51 16 -73 28 -73 39 0 9 -15
24 -32 33 -31 16 -118 74 -146 98 -23 20 -184 58 -213 51 -42 -9 -58 -8 -80
10 -24 20 -24 20 -1 15 32 -7 18 9 -15 17 -16 4 -60 23 -100 42 -39 19 -100
39 -135 45 -100 16 -250 -5 -337 -47 -58 -28 -121 -31 -156 -8 -25 16 -193 48
-257 48 -74 0 -20 16 75 23 53 3 94 10 91 14 -9 15 -114 9 -189 -10z m235
-130 c0 -5 -16 -15 -35 -21 -19 -6 -33 -15 -30 -20 3 -5 -5 -12 -17 -16 -13
-4 -25 -9 -28 -13 -15 -18 -106 -86 -113 -83 -4 1 -10 -6 -14 -15 -9 -27 -35
-49 -65 -56 -26 -7 -27 -6 -17 23 14 40 31 50 24 13 -4 -23 -4 -24 4 -8 5 11
10 28 10 38 2 31 74 98 146 133 66 32 135 45 135 25z m-1173 -263 c-9 -7 -27
-35 -41 -63 -22 -45 -32 -77 -50 -157 -7 -31 -110 -143 -124 -134 -5 3 -15
-14 -23 -37 l-14 -42 -3 39 c-13 151 76 328 192 382 57 27 91 33 63 12z m-329
-9526 c-10 -12 -10 -16 0 -19 6 -3 10 -9 6 -14 -10 -17 7 -31 22 -18 8 6 18 9
22 5 4 -4 -1 -13 -11 -20 -27 -21 -20 -35 17 -32 43 4 57 13 49 33 -5 11 -3
14 6 9 7 -5 10 -18 7 -31 -7 -27 15 -97 32 -103 7 -2 12 3 12 11 0 9 -5 17
-11 19 -7 2 -7 12 2 30 15 35 30 26 22 -12 -3 -20 -1 -30 6 -30 7 0 10 -4 7
-8 -2 -4 -1 -14 4 -21 6 -10 9 -9 14 7 4 11 14 23 22 26 12 4 15 2 11 -9 -4
-8 -2 -17 4 -21 6 -3 8 -12 5 -20 -8 -20 10 -26 24 -9 21 25 29 17 14 -14 -15
-31 -46 -44 -81 -35 -14 4 -19 11 -16 25 3 10 1 19 -4 19 -5 0 -22 12 -39 28
-17 15 -47 35 -67 46 -52 27 -77 53 -70 73 4 11 3 14 -5 9 -15 -9 -52 15 -52
35 0 22 39 71 51 63 6 -3 5 -12 -3 -22z"/>
<path d="M4369 8191 c17 -32 13 -34 -23 -12 -33 21 -89 21 -101 0 -3 -4 -19
-3 -36 3 -25 8 -33 8 -40 -3 -5 -8 -21 -14 -36 -15 -120 -3 -121 -3 -126 -26
-5 -18 -8 -19 -22 -8 -13 11 -18 10 -29 -5 -7 -10 -19 -15 -27 -12 -10 4 -9 6
4 6 24 1 21 14 -7 27 -15 7 -39 8 -63 4 -21 -4 -32 -8 -25 -9 20 -2 14 -21 -7
-21 -14 0 -18 -5 -14 -20 4 -14 0 -20 -11 -20 -10 0 -13 5 -9 16 4 12 2 15 -8
12 -8 -3 -13 -10 -12 -16 2 -9 -44 -24 -81 -26 -11 -1 -21 -7 -24 -15 -3 -8 0
-11 7 -7 6 4 11 2 11 -4 0 -6 -7 -13 -15 -16 -8 -4 -12 -11 -9 -16 4 -6 -2 -7
-16 -3 -15 5 -20 3 -16 -3 4 -7 -11 -13 -39 -17 -44 -7 -63 -24 -27 -26 14 0
14 -2 2 -7 -24 -11 -22 -32 2 -32 13 0 30 -5 38 -11 12 -8 12 -10 -5 -8 -43 3
-72 -2 -91 -15 -19 -15 -19 -15 1 -15 11 0 38 -4 60 -10 47 -12 128 -14 85 -2
l-25 7 30 6 c17 4 37 2 45 -3 11 -6 11 -8 2 -9 -7 0 -10 -5 -7 -10 4 -6 15 -8
26 -5 10 4 27 1 36 -5 17 -11 17 -11 -1 -6 -13 5 -17 2 -13 -8 4 -10 1 -13 -8
-10 -17 7 -84 -44 -166 -127 -48 -48 -64 -70 -61 -86 5 -33 19 -28 64 21 51
58 123 103 198 127 63 19 220 37 220 25 0 -15 -28 -35 -56 -39 -27 -4 -27 -4
6 -6 52 -2 62 -11 46 -43 -10 -20 -11 -28 -3 -31 16 -5 -16 -37 -37 -37 -9 0
-16 -5 -16 -11 0 -6 -9 -9 -20 -6 -11 3 -20 1 -20 -5 0 -6 -9 -8 -21 -5 -16 4
-23 0 -27 -15 -4 -16 -10 -19 -33 -14 -19 3 -38 -2 -61 -17 -18 -13 -55 -36
-83 -51 -51 -30 -161 -134 -151 -143 8 -8 125 18 132 28 12 20 86 -5 133 -44
17 -14 131 -12 131 3 0 4 -20 11 -45 15 -50 7 -110 29 -119 44 -14 22 6 38 44
37 22 -1 40 1 40 4 0 14 40 7 45 -8 8 -24 52 -72 65 -72 7 0 5 -7 -4 -16 -21
-21 -20 -27 3 -19 33 10 161 15 161 5 0 -4 -19 -11 -42 -15 -24 -4 -47 -11
-53 -15 -14 -11 -98 -16 -113 -6 -17 11 -32 -2 -32 -27 1 -22 1 -22 16 -2 11
13 18 16 21 8 2 -6 15 -9 30 -7 23 4 25 2 19 -21 -4 -14 -2 -25 3 -25 5 0 11
9 14 20 7 29 37 26 37 -4 0 -13 6 -27 13 -29 6 -3 1 -6 -13 -6 -19 -1 -26 -6
-26 -22 0 -18 4 -20 35 -14 19 4 64 18 99 32 36 15 67 22 71 17 8 -13 61 -14
61 -2 0 6 7 8 15 4 9 -3 15 0 15 9 0 8 7 15 16 15 14 0 14 -3 4 -15 -10 -12
-10 -15 4 -15 9 0 16 4 16 8 0 4 14 9 30 10 34 3 41 -17 10 -25 -22 -6 -28
-23 -7 -23 22 1 47 27 47 49 0 12 4 20 9 16 6 -3 17 10 27 30 13 29 14 38 4
50 -10 12 -10 19 -2 27 7 7 12 20 12 29 0 9 10 19 23 23 12 3 30 19 40 36 17
28 17 33 3 55 -15 22 -14 24 7 27 16 2 22 10 23 28 1 14 7 37 15 50 7 14 12
30 11 37 -1 6 2 14 7 18 6 3 8 11 5 18 -2 7 2 31 10 54 8 23 12 43 10 46 -11
10 17 57 33 57 15 0 18 7 17 35 -1 23 3 35 11 35 7 0 15 11 17 25 4 17 1 25
-9 25 -8 0 -21 17 -30 38 -18 40 -19 45 -21 80 -2 17 -8 22 -30 22 -23 0 -93
37 -112 59 -10 11 -52 13 -46 2 4 -6 3 -11 -2 -11 -5 0 -15 12 -22 26 -8 14
-23 30 -33 36 -16 8 -17 7 -8 -11z"/>
<path d="M3087 6899 c10 -12 9 -20 0 -40 -30 -58 -39 -111 -41 -233 -1 -84 3
-129 10 -134 6 -4 15 -23 20 -42 l8 -35 6 35 c3 19 7 116 9 215 1 99 3 193 4
209 1 18 -4 31 -13 34 -12 4 -13 2 -3 -9z"/>
<path d="M4455 6466 c-11 -6 -33 -22 -48 -36 -24 -21 -27 -31 -26 -73 3 -48 3
-48 57 -75 58 -28 78 -25 96 15 6 12 27 26 50 33 70 21 105 40 100 53 -2 6
-34 30 -70 51 -68 41 -123 52 -159 32z"/>
<path d="M7805 3060 c-3 -5 -3 -10 2 -11 4 -1 -3 -5 -17 -9 -23 -7 -23 -8 -3
-9 36 -2 36 -19 1 -41 -30 -18 -31 -20 -10 -20 13 0 21 -3 19 -7 -3 -5 -1 -18
4 -30 5 -15 14 -20 28 -16 18 5 21 1 21 -26 0 -17 -4 -31 -10 -31 -5 0 -10 5
-10 10 0 6 -7 10 -15 10 -13 0 -14 -4 -5 -20 11 -20 60 -29 60 -10 0 6 5 10
10 10 23 0 8 -29 -20 -39 -16 -5 -30 -12 -30 -15 0 -3 8 -2 17 1 14 5 13 1 -6
-25 -18 -27 -20 -32 -6 -32 8 0 19 -8 22 -17 4 -10 11 -21 16 -24 10 -7 11
-22 6 -106 -1 -38 -4 -43 -26 -43 -13 0 -31 -7 -39 -15 -18 -17 -11 -19 17 -5
28 15 149 24 149 11 0 -6 -7 -8 -15 -5 -17 7 -19 -4 -5 -40 6 -16 6 -26 0 -26
-5 0 -12 17 -16 38 -4 20 -9 32 -11 26 -2 -7 -13 -10 -23 -7 -11 3 -20 0 -20
-6 0 -6 6 -11 13 -11 8 0 14 -7 14 -15 0 -8 -9 -15 -19 -15 -10 0 -18 -4 -18
-9 0 -4 -11 -7 -24 -6 -14 2 -27 -3 -30 -11 -8 -20 -26 -17 -27 4 0 9 -6 2
-13 -17 -6 -18 -23 -42 -35 -53 -13 -10 -20 -22 -16 -26 4 -4 10 -1 12 6 3 6
9 10 14 6 16 -9 -1 -24 -27 -24 -14 0 -22 -4 -19 -10 3 -5 -1 -10 -10 -10 -9
0 -14 -4 -11 -8 3 -5 -6 -16 -20 -26 -13 -11 -24 -27 -24 -37 0 -11 -4 -19
-10 -19 -5 0 -10 5 -10 11 0 5 -5 7 -11 3 -6 -3 -9 -15 -6 -25 6 -22 -18 -47
-26 -27 -4 9 -11 7 -24 -9 -14 -18 -27 -22 -60 -20 -41 2 -58 -12 -33 -28 16
-10 12 -25 -7 -25 -10 0 1 -9 25 -20 24 -11 41 -24 37 -30 -3 -5 -8 -10 -11
-10 -3 0 -2 5 2 12 5 8 2 9 -9 5 -10 -3 -17 -2 -17 3 0 6 -5 10 -10 10 -7 0
-7 -6 0 -19 8 -16 6 -21 -10 -26 -22 -7 -26 -25 -8 -43 9 -9 7 -13 -5 -18 -9
-3 -17 -11 -17 -16 0 -6 7 -8 15 -4 8 3 15 1 15 -4 0 -6 -4 -10 -9 -10 -5 0
-11 -9 -14 -20 -4 -17 -2 -20 16 -15 12 4 17 3 11 -2 -18 -13 -23 -40 -11 -53
9 -10 8 -12 -5 -7 -12 4 -15 2 -11 -9 3 -7 1 -14 -3 -14 -5 0 -15 -4 -22 -9
-12 -7 -12 -12 0 -30 11 -18 11 -23 -2 -31 -8 -5 -17 -7 -20 -5 -4 2 -5 -9 -2
-24 3 -22 -1 -29 -17 -34 -14 -3 -21 -13 -21 -30 0 -14 -7 -28 -16 -31 -8 -3
-12 -11 -9 -16 5 -8 12 -7 23 2 14 11 15 10 9 -5 -4 -10 -7 -20 -7 -23 0 -2
-7 -1 -15 2 -11 5 -13 2 -9 -10 4 -12 0 -16 -15 -16 -12 0 -21 5 -21 12 0 21
-13 -1 -16 -27 -1 -14 2 -25 7 -25 5 0 9 -4 9 -10 0 -5 -7 -7 -15 -4 -8 4 -15
1 -15 -5 0 -6 7 -11 15 -11 8 0 15 -5 15 -11 0 -6 -11 -9 -25 -7 -18 2 -32 -6
-50 -26 -14 -16 -25 -33 -25 -39 0 -5 -6 -4 -14 2 -17 15 -23 6 -32 -47 -4
-27 -11 -39 -19 -36 -7 3 -20 -5 -28 -17 -9 -12 -22 -19 -30 -16 -10 4 -18
-10 -27 -51 -8 -32 -15 -49 -18 -39 -5 23 -18 22 -36 -5 l-16 -22 0 27 c0 17
-5 27 -15 27 -8 0 -15 -4 -15 -10 0 -5 4 -10 9 -10 13 0 1 -48 -15 -61 -12
-10 -13 -9 -8 5 4 11 1 16 -10 16 -9 0 -16 -5 -16 -10 0 -7 -6 -7 -19 0 -30
16 -46 13 -31 -5 7 -8 19 -14 28 -13 24 5 24 -17 0 -28 -13 -6 -18 -9 -11 -7
7 1 15 -2 18 -7 4 -6 -2 -10 -13 -10 -10 0 -25 -11 -32 -25 -13 -25 -30 -33
-30 -15 0 6 5 10 11 10 5 0 7 5 4 10 -11 17 -32 -6 -39 -41 -4 -23 -10 -30
-21 -25 -10 4 -20 -3 -27 -19 -12 -27 -34 -35 -24 -9 4 10 1 14 -6 12 -7 -3
-14 -13 -16 -24 -2 -15 -11 -20 -40 -20 -37 -1 -38 -1 -34 34 3 24 1 33 -7 28
-6 -4 -11 -21 -11 -39 0 -29 -1 -30 -14 -11 -8 10 -10 20 -5 22 5 2 9 12 9 23
0 32 -28 21 -40 -16 -6 -19 -16 -35 -21 -35 -13 0 -11 7 7 35 13 20 14 25 3
25 -11 0 -11 2 1 10 12 8 10 10 -11 10 -23 0 -25 3 -21 32 2 18 8 38 12 43 4
6 10 18 13 28 5 14 3 18 -11 15 -9 -2 -18 -13 -18 -26 -2 -39 -4 -42 -19 -42
-18 0 -19 12 -3 28 8 8 9 15 2 22 -8 8 -15 6 -24 -5 -14 -17 -57 -20 -80 -5
-12 7 -12 12 -2 22 9 9 12 9 12 0 0 -7 12 -12 26 -12 14 0 23 4 19 10 -3 5
-12 7 -20 4 -9 -4 -18 2 -23 16 -11 31 -67 38 -75 11 -2 -11 0 -24 6 -30 7 -7
6 -12 -6 -17 -9 -3 -19 -20 -23 -37 l-7 -32 -12 35 c-11 32 -12 33 -18 11 -4
-16 -11 -22 -21 -17 -9 3 -22 9 -30 12 -10 4 -15 -3 -18 -23 -2 -21 -8 -27
-22 -25 -11 2 -15 -1 -11 -7 3 -6 13 -11 21 -11 8 0 13 -4 9 -9 -3 -5 -1 -12
4 -15 5 -4 13 -2 16 4 4 6 16 8 27 4 12 -3 24 -1 28 6 5 9 10 6 15 -10 10 -30
34 -56 63 -64 14 -5 22 -15 22 -29 l0 -21 20 22 c24 26 26 44 4 35 -12 -4 -15
-2 -12 8 7 20 38 24 38 5 0 -9 8 -16 18 -16 14 0 17 -8 15 -47 -2 -41 -1 -44
6 -17 11 42 19 54 38 54 13 0 13 -3 2 -16 -10 -13 -10 -17 1 -24 9 -6 18 -3
27 8 11 15 12 15 13 -5 0 -13 4 -23 10 -23 5 0 7 -7 4 -15 -4 -8 1 -17 10 -21
9 -3 13 -11 10 -16 -4 -6 -10 -5 -15 3 -8 11 -12 11 -24 -4 -7 -11 -11 -25 -8
-33 7 -19 -12 -18 -31 2 -16 16 -41 10 -31 -7 4 -5 -1 -12 -9 -15 -9 -3 -13
-10 -10 -15 8 -13 -10 -11 -24 3 -9 9 -12 5 -13 -18 -1 -16 -1 -35 0 -43 2
-11 0 -11 -12 0 -8 8 -12 21 -9 29 4 12 2 13 -9 3 -19 -19 -42 -16 -35 3 4 10
1 14 -6 12 -7 -3 -13 -10 -13 -16 0 -5 -3 -13 -7 -17 -4 -4 -4 -13 -1 -21 3
-8 -1 -14 -11 -14 -9 0 -15 6 -14 12 2 7 -4 13 -12 13 -10 0 -14 -9 -13 -27 1
-19 -3 -28 -13 -28 -10 0 -14 -8 -12 -22 2 -16 -3 -24 -17 -26 -17 -4 -18 -2
-6 11 7 9 10 21 6 28 -4 6 -2 15 5 19 8 5 15 28 17 52 5 51 5 50 38 50 14 1
25 4 25 9 0 5 -7 9 -15 9 -8 0 -15 5 -15 10 0 6 9 10 19 10 11 0 23 5 27 12 5
8 0 9 -17 4 -13 -4 -35 -7 -48 -7 -16 1 -21 -3 -18 -13 7 -19 -17 -53 -27 -38
-4 6 -2 21 4 32 6 11 8 25 5 30 -3 5 -1 11 3 14 5 3 8 15 6 28 -1 13 -3 29 -3
36 -1 6 -5 12 -10 12 -6 0 -9 -14 -8 -32 2 -25 -2 -33 -18 -36 -15 -2 -17 -1
-6 6 14 10 7 32 -9 32 -9 0 -24 -45 -34 -100 -2 -14 -5 -27 -5 -29 -1 -2 -7 2
-15 8 -10 9 -16 9 -21 1 -4 -7 2 -14 14 -17 12 -3 21 -12 21 -19 0 -8 4 -14 9
-14 5 0 13 24 18 52 6 37 13 54 25 56 14 3 16 -1 9 -25 -5 -15 -14 -40 -21
-54 -8 -18 -9 -33 -3 -44 9 -15 11 -15 26 -1 24 24 27 19 13 -21 -12 -35 -36
-57 -36 -34 0 6 -7 11 -16 11 -12 0 -15 6 -10 25 4 14 2 25 -3 25 -17 0 -21
-18 -11 -46 13 -33 5 -44 -15 -18 -14 18 -14 18 -15 -8 0 -18 5 -28 14 -28 8
0 22 -3 32 -7 12 -4 15 -3 10 5 -4 8 -1 12 10 12 10 0 15 -3 11 -6 -3 -3 -1
-17 4 -31 7 -20 6 -28 -8 -39 -24 -18 -34 -17 -27 1 4 10 0 15 -15 15 -12 0
-20 -6 -19 -12 2 -7 -3 -12 -10 -10 -21 4 -52 -17 -46 -32 3 -7 -2 -16 -12
-20 -12 -4 -13 -10 -6 -19 7 -8 5 -19 -8 -34 -24 -30 -32 -29 -24 1 3 13 1 27
-5 31 -7 3 -11 3 -10 -2 3 -17 -14 -73 -23 -73 -5 0 -6 -9 -3 -20 4 -11 2 -20
-4 -20 -6 0 -11 5 -11 10 0 6 -8 10 -17 10 -15 0 -14 2 3 15 18 13 18 14 -4 8
-15 -4 -21 -11 -17 -22 4 -12 -4 -19 -27 -26 -22 -7 -33 -16 -32 -27 1 -13 -6
-18 -22 -18 -14 0 -27 -7 -29 -15 -16 -49 -15 -48 -30 -35 -9 7 -19 9 -23 5
-4 -4 -2 -10 5 -12 7 -2 9 -11 6 -19 -3 -7 -9 -11 -14 -8 -5 3 -9 -2 -9 -10 0
-9 -7 -16 -15 -16 -8 0 -15 -7 -15 -15 0 -10 -9 -14 -30 -11 -34 4 -41 -9 -10
-19 11 -3 20 -11 20 -17 0 -5 -6 -8 -12 -5 -7 2 -21 -9 -30 -25 -17 -27 -48
-39 -48 -18 0 6 -5 10 -10 10 -6 0 -10 -6 -9 -12 3 -24 -1 -38 -11 -38 -5 0
-10 7 -10 15 0 32 -29 14 -36 -22 -6 -31 -8 -34 -15 -18 -8 21 -8 21 -14 -8
-3 -16 45 -17 966 -17 617 0 969 4 969 10 0 6 7 10 15 10 8 0 15 -4 15 -10 0
-5 28 -9 65 -9 56 1 66 4 80 25 8 13 15 31 15 39 0 22 22 14 36 -13 6 -12 14
-19 17 -15 4 3 7 1 7 -5 0 -7 -7 -12 -15 -12 -8 0 -15 5 -15 10 0 6 -7 10 -15
10 -8 0 -15 -9 -15 -20 0 -18 7 -20 60 -20 45 0 62 4 66 15 4 8 11 15 16 15 6
0 8 -7 4 -15 -4 -10 1 -15 15 -15 12 0 17 4 14 11 -4 6 0 16 8 22 24 18 33 65
14 73 -9 3 -13 12 -10 19 4 11 9 12 24 2 17 -10 23 -9 34 7 8 10 12 22 10 26
-3 5 2 11 11 14 8 3 14 11 13 18 -2 17 21 78 30 78 14 0 10 -51 -4 -56 -8 -4
-15 -14 -15 -23 0 -9 -5 -22 -10 -27 -7 -7 -5 -17 6 -30 9 -11 14 -13 12 -5
-3 8 4 23 14 33 10 10 18 27 18 38 0 11 5 20 11 20 15 0 1 -62 -17 -76 -8 -6
-14 -19 -14 -28 0 -9 -7 -19 -15 -22 -8 -4 -13 -10 -10 -14 3 -4 -2 -10 -10
-14 -20 -7 -20 -66 0 -66 9 0 15 9 15 24 0 29 17 43 33 27 17 -17 24 -14 37
19 7 16 16 27 21 24 16 -9 10 -39 -11 -52 -34 -21 -4 -39 67 -41 51 -2 63 1
63 13 0 9 7 16 15 16 8 0 15 -7 15 -16 0 -14 3 -14 15 -4 10 9 15 9 15 1 0 -6
11 -11 25 -11 14 0 25 5 25 11 0 8 4 8 13 1 7 -7 82 -11 195 -11 159 0 183 2
193 17 10 16 10 16 5 0 -5 -16 3 -18 65 -18 66 0 71 1 66 20 -3 11 -1 20 4 20
5 0 9 11 9 24 0 14 5 28 11 31 6 4 8 13 5 21 -3 8 -1 14 4 14 6 0 10 7 10 15
0 17 16 20 25 6 3 -5 1 -13 -5 -16 -6 -4 -8 -15 -5 -25 4 -11 0 -22 -9 -27
-21 -12 -30 -83 -10 -83 8 0 13 3 13 8 -4 21 2 42 10 38 5 -3 7 -15 4 -26 -4
-14 0 -20 11 -20 10 0 16 8 16 22 l0 22 21 -23 c30 -32 106 -27 132 9 l18 25
-5 -28 -5 -27 159 1 c112 0 160 4 164 12 5 9 7 9 12 -1 7 -16 31 -16 37 1 4 9
7 9 15 -1 10 -15 120 -15 140 1 8 6 12 6 12 -2 0 -6 9 -11 20 -11 14 0 20 7
20 21 0 12 4 17 11 14 6 -4 8 -13 5 -21 -4 -11 15 -14 109 -14 110 0 114 1
118 23 l4 22 2 -22 c3 -49 42 -19 40 30 0 12 -3 16 -6 10 -5 -15 -33 -18 -33
-4 0 5 -9 11 -20 14 -15 4 -20 0 -20 -16 -1 -20 -2 -20 -11 -4 -8 13 -5 26 10
51 21 34 29 82 11 71 -5 -3 -7 -12 -4 -19 3 -7 -2 -16 -11 -20 -10 -3 -15 -13
-12 -20 5 -12 -11 -26 -29 -26 -11 0 9 46 24 57 14 11 13 13 -9 13 -14 0 -30
-5 -36 -11 -7 -7 -13 -7 -17 0 -4 5 -13 8 -21 4 -9 -3 -15 1 -15 11 0 14 -12
20 -32 17 -18 -3 4 75 34 119 13 19 15 34 10 55 -5 19 -11 25 -16 17 -4 -7 -5
-16 -1 -21 3 -5 0 -13 -6 -16 -5 -4 -8 -12 -6 -19 3 -7 -8 -27 -25 -46 -24
-28 -28 -31 -23 -12 5 16 2 22 -8 22 -9 0 -17 -4 -19 -9 -1 -5 -15 -7 -30 -4
-22 4 -28 11 -28 30 0 13 3 22 8 20 4 -3 7 8 8 24 1 25 -1 27 -14 17 -8 -7
-21 -26 -28 -43 l-13 -30 2 43 c3 45 20 65 49 56 21 -6 30 8 17 26 -8 12 -12
12 -16 3 -11 -28 -20 -10 -12 24 8 40 2 62 -8 25 -3 -12 -9 -22 -14 -22 -5 0
-9 -5 -9 -12 0 -18 -33 -88 -42 -88 -4 0 -8 9 -8 20 0 11 -7 20 -15 20 -8 0
-15 -9 -15 -20 0 -11 -4 -20 -10 -20 -16 0 -12 26 10 65 21 37 26 75 11 75 -5
0 -11 -7 -15 -15 -3 -8 -10 -15 -16 -15 -14 0 -7 26 32 109 20 44 26 67 19 74
-7 7 -13 2 -20 -15 -13 -35 -28 -42 -34 -18 -3 13 -11 18 -20 14 -18 -6 -17
10 1 44 7 12 22 22 33 22 12 0 23 8 26 20 6 21 23 28 23 9 0 -6 6 -5 14 3 13
13 32 75 28 90 -1 5 2 8 7 8 5 0 12 13 16 30 4 16 10 30 15 30 9 0 8 -56 -3
-66 -4 -4 -7 -17 -7 -28 0 -12 -7 -34 -15 -50 -9 -16 -13 -31 -10 -34 8 -8 20
9 32 43 6 17 14 39 19 50 4 11 6 28 5 37 -1 10 2 18 7 18 5 0 13 15 16 34 4
19 13 39 21 46 19 16 19 34 0 26 -8 -3 -21 -9 -29 -12 -11 -4 -12 3 -6 37 7
37 22 58 43 59 4 0 7 -4 7 -10 0 -5 -3 -10 -7 -10 -5 0 -13 -11 -20 -25 -10
-23 -9 -25 13 -25 24 0 29 -11 26 -53 -1 -10 3 -15 8 -12 6 3 10 13 10 21 0
15 23 44 35 44 3 0 3 -15 0 -33 -3 -17 -7 -40 -9 -51 -1 -10 -9 -22 -18 -27
-8 -5 -15 -24 -16 -45 -1 -22 -9 -42 -19 -50 -17 -12 -16 -13 10 -14 25 0 27
3 21 27 -5 17 -2 30 8 37 8 6 17 20 21 30 4 10 10 16 13 13 3 -3 -4 -34 -16
-69 -13 -35 -23 -69 -23 -75 -1 -19 -14 -16 -30 7 -13 18 -15 19 -21 5 -9 -24
-7 -37 3 -31 5 3 14 -1 21 -9 10 -12 10 -18 0 -30 -16 -19 -3 -40 14 -23 13
14 28 46 30 63 1 6 6 19 13 30 19 32 25 10 9 -30 -19 -46 -19 -45 -1 -45 8 0
15 6 15 13 1 6 9 30 20 52 11 22 19 45 20 51 0 12 29 28 36 21 2 -2 -5 -13
-15 -24 -29 -30 -30 -74 -2 -102 12 -12 29 -20 37 -17 8 3 14 -1 14 -9 0 -17
16 -20 25 -5 10 16 -34 52 -56 45 -25 -8 -25 14 1 60 11 20 20 42 20 50 0 8 4
15 9 15 11 0 7 -35 -7 -72 -8 -20 -8 -29 0 -34 14 -9 38 24 38 53 0 13 5 23
11 23 12 0 3 -54 -14 -82 -13 -20 -4 -33 18 -24 14 5 16 27 14 166 -1 110 -5
160 -13 160 -7 0 -8 3 -1 8 6 4 11 19 10 34 0 22 -3 25 -19 16 -12 -7 -22 -6
-28 0 -14 14 -2 43 14 37 7 -3 20 0 28 5 13 9 13 11 0 19 -9 6 -19 6 -27 -1
-10 -8 -13 -6 -13 6 0 9 -4 16 -10 16 -5 0 -10 -16 -10 -35 0 -19 -4 -35 -8
-35 -5 0 -9 20 -9 45 0 36 4 45 18 45 9 0 19 -6 22 -12 6 -17 14 -9 19 17 2
17 -2 20 -29 17 -25 -3 -33 1 -33 13 0 9 -5 13 -10 10 -6 -3 -17 1 -26 10 -15
15 -14 15 10 9 16 -4 26 -2 26 5 0 6 -7 11 -15 11 -8 0 -15 6 -16 13 0 6 -2
20 -4 30 -2 9 1 17 5 17 5 0 15 18 21 41 12 38 13 39 21 18 6 -15 5 -25 -4
-31 -10 -6 -9 -8 4 -8 9 0 24 7 32 16 15 14 16 14 16 0 0 -9 7 -16 15 -16 12
0 15 19 15 115 0 108 -1 115 -20 115 -13 0 -18 5 -14 15 4 8 10 15 16 15 5 0
6 -5 3 -10 -3 -6 -2 -10 2 -10 5 0 10 23 10 52 1 35 -1 47 -7 38 -8 -13 -10
-12 -10 2 0 9 5 20 10 23 20 12 10 27 -14 21 -20 -5 -23 -3 -19 14 3 11 0 20
-6 20 -6 0 -11 -6 -11 -14 0 -8 -10 -18 -22 -22 -21 -6 -21 -7 -2 -22 17 -13
17 -14 1 -8 -10 3 -26 6 -34 6 -10 0 -1 14 25 38 46 42 54 72 21 72 -11 0 -17
4 -14 10 4 6 14 10 23 9 10 -2 27 1 39 5 23 7 23 8 22 227 -1 197 -2 219 -17
219 -15 1 -15 3 2 15 16 12 17 17 6 30 -7 8 -19 15 -26 15 -8 0 -14 5 -14 10
0 6 11 10 25 10 24 0 25 2 25 71 l0 71 -30 -4 c-16 -3 -30 -1 -30 4 0 4 14 8
30 8 28 0 30 2 20 20 -13 23 -40 27 -40 5 0 -14 -10 -18 -27 -12 -5 1 -7 6 -5
10 1 5 -11 14 -28 20 -16 6 -30 15 -30 19 0 4 -6 5 -14 2 -8 -3 -17 -1 -21 5
-3 6 -21 11 -38 11 -24 0 -28 3 -17 10 9 6 10 10 3 10 -6 0 -19 3 -29 7 -13 5
-16 3 -11 -10 4 -11 1 -17 -8 -17 -8 0 -15 4 -15 9 0 4 -12 7 -27 4 -24 -3
-25 -2 -8 6 19 9 18 10 -5 10 -20 1 -22 3 -10 12 12 8 8 10 -15 8 -45 -2 -51
0 -35 12 11 8 4 9 -26 5 -31 -4 -45 -2 -55 10 -12 14 -14 13 -23 -8 l-10 -23
-3 27 c-4 24 -33 50 -33 28 0 -5 -15 -1 -32 10 -18 10 -42 18 -52 16 -11 -1
-31 3 -45 10 -13 7 -29 11 -33 8 -5 -3 -17 1 -26 9 -9 8 -30 18 -47 22 -16 5
-37 10 -45 12 -8 3 -24 6 -35 7 -22 3 -51 13 -77 27 -10 5 -26 9 -37 9 -11 0
-32 5 -48 12 -15 6 -32 10 -36 9 -5 -1 -23 3 -40 8 -86 26 -202 57 -317 86
-30 7 -95 24 -145 38 -49 13 -152 40 -227 60 -76 20 -147 41 -160 48 -12 6
-46 12 -75 13 -28 0 -47 3 -42 7 7 4 4 9 -6 13 -22 8 -23 8 -30 -4z m1855
-1550 c0 -21 -5 -30 -16 -30 -8 0 -13 -4 -10 -9 11 -17 46 1 47 23 0 14 2 16
6 6 11 -29 43 -40 43 -14 0 8 4 13 9 10 12 -8 1 -48 -17 -62 -12 -9 -12 -13
-2 -19 8 -5 21 3 36 20 13 16 26 26 29 24 7 -8 -6 -49 -16 -49 -5 0 -9 -7 -9
-15 0 -9 -7 -18 -15 -21 -8 -4 -15 -19 -15 -34 0 -16 -5 -32 -11 -36 -7 -4 -9
2 -7 17 3 20 -2 24 -34 30 -21 3 -42 1 -48 -5 -7 -7 -10 -5 -10 6 0 9 -5 20
-11 24 -8 5 -10 -1 -5 -19 3 -14 2 -29 -4 -32 -5 -3 -10 -13 -10 -21 0 -13 3
-13 18 2 16 16 17 16 20 1 2 -9 8 -17 14 -17 5 0 18 -10 29 -22 l19 -23 -5 30
c-3 17 -2 24 1 18 3 -7 12 -13 20 -13 20 0 17 -13 -5 -27 -19 -12 -21 -12 -78
37 -8 6 -14 6 -18 0 -10 -16 -22 -11 -28 12 -4 14 0 26 11 34 15 11 14 13 -11
19 -15 4 -27 12 -27 17 0 6 -9 8 -19 5 -14 -3 -18 -1 -14 9 3 8 11 14 19 14 8
0 14 7 14 16 0 11 6 14 22 9 17 -6 20 -4 14 10 -5 13 -2 16 10 11 11 -4 14 -1
10 12 -4 13 1 23 19 32 16 9 21 16 14 21 -6 4 -8 12 -5 18 13 21 26 11 26 -19z
m-282 -501 c-21 -12 -24 -39 -5 -39 6 0 4 -5 -6 -11 -9 -6 -15 -14 -12 -19 3
-5 0 -19 -7 -30 -11 -17 -11 -22 0 -29 10 -6 10 -10 -3 -21 -8 -7 -15 -24 -15
-39 1 -22 5 -18 24 24 13 28 27 65 30 82 11 49 30 55 22 7 -4 -21 -9 -47 -12
-56 -3 -10 -1 -18 5 -18 6 0 11 9 11 19 0 11 5 23 10 26 6 3 10 19 10 35 0 23
4 28 16 23 11 -4 14 -12 9 -27 -3 -11 -8 -34 -11 -49 -2 -16 -6 -33 -9 -38 -4
-5 -4 -9 -1 -9 10 0 34 55 41 93 5 27 12 37 26 37 15 0 17 -4 10 -22 -15 -38
-24 -63 -26 -73 -9 -51 -19 -75 -30 -71 -8 3 -11 -2 -8 -13 6 -24 -10 -84 -25
-89 -14 -4 -16 34 -2 43 5 3 8 19 7 35 -2 24 -6 29 -21 24 -16 -5 -18 -2 -14
19 4 19 1 24 -9 20 -8 -3 -12 -12 -9 -19 6 -15 -21 -74 -35 -74 -5 0 -9 5 -9
10 0 6 -11 8 -25 4 -20 -5 -24 -3 -19 10 4 9 1 16 -6 16 -6 0 -14 -9 -17 -20
-3 -11 -9 -20 -14 -20 -11 0 -12 14 -1 24 4 4 12 30 17 58 6 31 16 53 25 55 9
3 11 1 5 -4 -5 -4 -11 -26 -13 -47 -3 -34 -1 -38 12 -27 15 13 32 66 27 89 -1
6 3 12 10 12 6 0 9 8 6 20 -3 11 -1 20 4 20 5 0 9 9 9 19 0 31 11 51 29 51 14
-1 14 -2 -1 -11z"/>
<path d="M1649 2899 c-7 -13 -17 -19 -29 -16 -10 2 -24 1 -31 -4 -10 -6 -11
-9 -1 -9 6 0 12 -4 12 -10 0 -5 -11 -10 -24 -10 -24 0 -51 -22 -40 -33 3 -3
-5 -11 -18 -18 -34 -18 -81 -59 -68 -59 10 0 10 -3 0 -14 -6 -8 -18 -12 -26
-9 -10 4 -17 -2 -20 -15 -3 -11 -23 -28 -45 -38 -22 -11 -37 -24 -34 -31 2 -7
-10 -20 -27 -29 -22 -11 -27 -18 -18 -24 15 -9 4 -32 -13 -28 -15 3 -77 -24
-77 -34 0 -4 8 -4 18 -1 15 6 15 5 3 -11 -10 -12 -17 -14 -25 -6 -15 15 -29
12 -22 -5 3 -9 -3 -19 -15 -25 -11 -6 -17 -15 -14 -21 4 -5 -1 -9 -9 -9 -9 0
-16 -3 -16 -8 0 -4 -15 -14 -32 -21 -18 -8 -46 -30 -62 -48 -16 -18 -37 -33
-45 -33 -13 0 -13 -2 -2 -9 7 -5 10 -14 7 -20 -4 -6 -12 -9 -17 -6 -5 4 -20
-5 -34 -19 -14 -15 -30 -26 -36 -26 -5 0 -14 -11 -19 -24 -5 -15 -20 -27 -39
-31 -20 -4 -31 -13 -33 -27 -2 -13 -20 -31 -43 -44 -22 -12 -39 -29 -39 -37 1
-8 -13 -19 -31 -26 -17 -6 -37 -23 -44 -37 -7 -16 -17 -24 -26 -20 -8 3 -14 0
-12 -6 1 -6 -13 -21 -31 -34 -27 -18 -29 -23 -15 -27 15 -3 13 -6 -9 -15 -16
-6 -28 -16 -28 -22 0 -5 -9 -10 -19 -10 -19 0 -35 -25 -26 -40 3 -4 -11 -15
-31 -25 -23 -10 -34 -22 -30 -31 3 -7 1 -16 -4 -19 -6 -4 -10 -1 -10 4 0 6 -7
11 -15 11 -8 0 -15 -4 -15 -10 0 -5 4 -10 10 -10 5 0 7 -7 4 -15 -4 -8 -12
-15 -20 -15 -8 0 -22 -15 -31 -34 -8 -19 -27 -39 -40 -45 -18 -8 -23 -16 -18
-30 4 -14 -3 -24 -28 -39 -18 -12 -43 -39 -56 -62 -12 -22 -28 -40 -35 -40 -8
0 -16 -9 -19 -21 -5 -20 -5 -20 15 -2 21 18 21 18 9 -4 -6 -13 -18 -23 -25
-23 -18 0 -97 -80 -91 -90 3 -5 -6 -17 -20 -28 -14 -11 -25 -23 -25 -27 0 -9
44 6 52 19 4 6 10 8 13 5 3 -4 -10 -22 -30 -42 l-35 -35 0 -232 0 -232 138
183 c76 101 164 218 195 259 32 41 99 129 148 195 50 65 105 137 123 160 19
22 84 103 145 180 135 171 198 248 232 286 15 16 44 50 65 76 38 46 98 114
212 242 31 36 103 112 159 170 56 58 116 126 133 151 115 168 140 209 134 224
-8 22 -21 20 -35 -5z"/>
<path d="M1094 2648 c-3 -5 -15 -6 -26 -2 -13 4 -26 -1 -38 -13 -48 -46 -78
-59 -66 -26 5 13 0 11 -21 -7 -15 -14 -31 -29 -34 -34 -4 -5 -13 -5 -20 -1 -9
6 -10 3 -5 -11 5 -14 4 -16 -5 -7 -8 9 -24 3 -64 -22 -29 -19 -56 -31 -60 -27
-5 4 -5 1 -1 -6 8 -14 -31 -33 -51 -25 -7 3 -13 0 -13 -6 0 -6 5 -11 11 -11 5
0 7 -5 4 -10 -3 -6 -17 -7 -31 -4 -20 5 -26 2 -31 -16 -4 -14 -8 -18 -13 -10
-10 16 -42 5 -79 -28 -62 -56 -80 -69 -86 -64 -3 3 -5 0 -5 -6 0 -7 -5 -12
-10 -12 -13 0 -169 -120 -227 -174 -24 -21 -43 -45 -43 -53 0 -7 -6 -13 -14
-13 -8 0 -49 -34 -91 -75 -44 -43 -69 -75 -60 -75 9 0 13 -5 10 -10 -4 -6 -10
-8 -15 -5 -4 3 -9 -110 -9 -252 -2 -292 -8 -280 83 -159 30 39 68 87 86 106
17 19 46 53 63 74 69 86 633 656 649 656 4 0 8 7 8 15 0 8 7 15 15 15 8 0 15
5 15 10 0 6 9 21 20 33 19 20 20 22 3 29 -16 6 -15 7 3 7 12 1 25 8 28 16 3 9
14 15 23 13 14 -2 18 4 18 24 0 17 10 37 28 53 29 28 35 45 15 45 -8 1 -6 6 5
14 9 7 28 22 42 32 14 10 25 21 25 25 0 9 -30 7 -36 -3z"/>
<path d="M6904 1786 c-3 -9 -9 -14 -13 -12 -3 2 -16 0 -28 -5 -26 -9 -32 -55
-10 -78 10 -11 9 -13 -6 -7 -10 3 -25 6 -33 6 -9 0 -13 4 -9 9 3 5 1 12 -4 15
-5 4 -14 -13 -19 -36 -5 -24 -11 -50 -13 -58 -3 -10 2 -14 14 -12 10 2 17 -3
17 -13 0 -12 -6 -15 -20 -10 -16 5 -20 2 -20 -17 -1 -20 -2 -21 -11 -5 -5 9
-14 17 -19 17 -17 0 -11 -25 9 -37 15 -9 17 -20 14 -57 -3 -30 -1 -46 6 -46 6
0 11 3 12 8 0 4 2 14 4 22 2 8 6 28 9 44 5 29 20 53 16 26 -6 -43 11 -53 39
-22 9 9 23 17 31 17 8 0 16 10 18 23 3 18 7 21 17 12 9 -8 14 -7 18 4 3 8 -2
16 -13 19 -13 3 -17 11 -13 26 3 11 10 18 16 14 6 -4 8 2 5 15 -4 12 -2 22 4
22 5 0 7 4 3 9 -3 5 -1 12 5 16 5 3 10 20 10 36 0 18 -4 28 -10 24 -5 -3 -10
-2 -10 4 0 5 5 11 11 13 7 2 5 9 -5 17 -13 11 -17 11 -22 -3z"/>
<path d="M6449 1430 c-29 -56 -32 -81 -8 -87 22 -6 34 -34 17 -44 -13 -9 -28
-3 -28 11 0 5 7 6 17 3 10 -4 14 -2 10 4 -4 6 -16 13 -27 16 -15 4 -20 0 -20
-14 0 -10 -5 -19 -11 -19 -6 0 -8 9 -4 21 6 19 4 21 -19 15 -23 -6 -26 -3 -26
19 0 14 -4 25 -10 25 -5 0 -10 -5 -10 -11 0 -5 -4 -8 -9 -5 -5 3 -7 19 -5 36
3 24 0 30 -15 30 -11 0 -26 3 -35 6 -12 5 -16 -1 -16 -24 0 -25 -3 -29 -20
-25 -16 4 -19 2 -14 -11 4 -11 13 -14 29 -10 30 7 38 -8 27 -50 -6 -19 -6 -39
-1 -47 5 -8 9 -9 10 -4 1 6 3 26 5 45 5 41 21 61 30 37 3 -10 4 -26 1 -37 -3
-14 1 -20 17 -22 11 -2 20 -9 19 -16 -2 -6 2 -12 7 -12 6 0 10 4 10 10 0 5 7
7 15 4 8 -4 12 -10 9 -15 -3 -5 6 -9 20 -9 22 0 26 -4 26 -30 0 -16 5 -30 11
-30 5 0 8 4 5 9 -4 5 -2 20 3 34 6 16 6 28 -2 36 -8 8 -7 11 6 11 9 0 17 7 17
15 0 8 4 15 9 15 11 0 8 46 -3 57 -4 4 -11 1 -17 -7 -7 -12 -11 -12 -17 -2 -6
8 -1 28 10 52 28 56 16 74 -13 20z"/>
</g>
</svg>
